<svg width="24" height="24" viewBox="0 0 24 24" fill="none" xmlns="http://www.w3.org/2000/svg">
<path d="M3.0006 4H21.0011C21.1834 4.00057 21.362 4.05093 21.5178 4.14564C21.6736 4.24035 21.8007 4.37584 21.8853 4.53751C21.97 4.69919 22.009 4.88093 21.9982 5.06318C21.9875 5.24543 21.9273 5.42128 21.8241 5.5718L12.8239 18.595C12.4509 19.135 11.5528 19.135 11.1788 18.595L2.17858 5.5718C2.0744 5.42159 2.01331 5.24565 2.00194 5.0631C1.99057 4.88055 2.02936 4.69837 2.11409 4.53635C2.19882 4.37433 2.32626 4.23867 2.48255 4.14411C2.63884 4.04956 2.81802 3.99971 3.0006 4Z" fill="white"/>
</svg>
