<svg width="24" height="24" viewBox="0 0 24 24" fill="none" xmlns="http://www.w3.org/2000/svg">
<path d="M19 20.9994V2.99889C18.9994 2.81664 18.9491 2.638 18.8544 2.4822C18.7596 2.32639 18.6242 2.19932 18.4625 2.11467C18.3008 2.03001 18.1191 1.99097 17.9368 2.00176C17.7546 2.01254 17.5787 2.07273 17.4282 2.17586L4.40497 11.1761C3.86501 11.5491 3.86501 12.4472 4.40497 12.8212L17.4282 21.8214C17.5784 21.9256 17.7543 21.9867 17.9369 21.9981C18.1194 22.0094 18.3016 21.9706 18.4636 21.8859C18.6257 21.8012 18.7613 21.6737 18.8559 21.5174C18.9504 21.3612 19.0003 21.182 19 20.9994Z" fill="white"/>
</svg>
