<svg width="40" height="40" viewBox="0 0 40 40" fill="none" xmlns="http://www.w3.org/2000/svg">
<rect width="40" height="40" rx="20" fill="#303333"/>
<path d="M23.8335 27.4997V12.4992C23.833 12.3474 23.7911 12.1985 23.7121 12.0687C23.6332 11.9388 23.5203 11.8329 23.3856 11.7624C23.2508 11.6918 23.0994 11.6593 22.9475 11.6683C22.7956 11.6773 22.6491 11.7274 22.5237 11.8134L11.671 19.3136C11.221 19.6244 11.221 20.3728 11.671 20.6845L22.5237 28.1847C22.6488 28.2715 22.7955 28.3224 22.9476 28.3319C23.0997 28.3414 23.2515 28.309 23.3865 28.2384C23.5216 28.1678 23.6346 28.0616 23.7134 27.9314C23.7922 27.8011 23.8337 27.6518 23.8335 27.4997Z" fill="white"/>
</svg>
