<svg width="40" height="40" viewBox="0 0 40 40" fill="none" xmlns="http://www.w3.org/2000/svg">
<rect width="40" height="40" rx="20" fill="#303333"/>
<path d="M15.3335 27.4997L15.3335 12.4992C15.334 12.3474 15.3759 12.1985 15.4549 12.0687C15.5338 11.9388 15.6467 11.8329 15.7814 11.7624C15.9162 11.6918 16.0676 11.6593 16.2195 11.6683C16.3714 11.6773 16.5179 11.7274 16.6433 11.8134L27.496 19.3136C27.946 19.6244 27.946 20.3728 27.496 20.6845L16.6433 28.1847C16.5182 28.2715 16.3715 28.3224 16.2194 28.3319C16.0673 28.3414 15.9155 28.309 15.7805 28.2384C15.6454 28.1678 15.5324 28.0616 15.4536 27.9314C15.3748 27.8011 15.3333 27.6518 15.3335 27.4997Z" fill="white"/>
</svg>
