<svg width="24" height="24" viewBox="0 0 24 24" fill="none" xmlns="http://www.w3.org/2000/svg">
<path d="M18.651 8.24186C18.7273 8.1646 18.8171 8.1042 18.9152 8.06411C19.0134 8.02402 19.1179 8.00503 19.2229 8.00821C19.3279 8.01139 19.4312 8.03668 19.5271 8.08265C19.6229 8.12862 19.7094 8.19436 19.7815 8.27611C19.8537 8.35787 19.9101 8.45404 19.9475 8.55914C19.9849 8.66424 20.0026 8.7762 19.9997 8.88864C19.9967 9.00108 19.9731 9.1118 19.9302 9.21446C19.8873 9.31712 19.8259 9.40973 19.7495 9.48699L12.5538 16.7659C12.4053 16.9162 12.2088 17 12.0045 17C11.8002 17 11.6037 16.9162 11.4552 16.7659L4.25864 9.48699C4.18064 9.41024 4.11765 9.31766 4.07333 9.21461C4.02902 9.11157 4.00426 9.00013 4.0005 8.88675C3.99674 8.77338 4.01405 8.66033 4.05143 8.55418C4.0888 8.44803 4.14549 8.35089 4.21822 8.26841C4.29094 8.18593 4.37824 8.11974 4.47504 8.0737C4.57185 8.02765 4.67623 8.00267 4.78212 8.0002C4.88802 7.99773 4.99331 8.01782 5.0919 8.05931C5.19048 8.10079 5.28039 8.16285 5.35639 8.24186L12.0045 14.9659L18.651 8.24186Z" fill="white"/>
</svg>
