<svg width="24" height="24" viewBox="0 0 24 24" fill="none" xmlns="http://www.w3.org/2000/svg">
<path d="M3.0006 19H21.0011C21.1834 18.9994 21.362 18.9491 21.5178 18.8544C21.6736 18.7596 21.8007 18.6242 21.8853 18.4625C21.97 18.3008 22.009 18.1191 21.9982 17.9368C21.9875 17.7546 21.9273 17.5787 21.8241 17.4282L12.8239 4.40497C12.4509 3.86501 11.5528 3.86501 11.1788 4.40497L2.17858 17.4282C2.0744 17.5784 2.01331 17.7543 2.00194 17.9369C1.99057 18.1194 2.02936 18.3016 2.11409 18.4636C2.19882 18.6257 2.32626 18.7613 2.48255 18.8559C2.63884 18.9504 2.81802 19.0003 3.0006 19Z" fill="white"/>
</svg>
