<svg width="24" height="24" viewBox="0 0 24 24" fill="none" xmlns="http://www.w3.org/2000/svg">
<path d="M4 20.9994L4 2.99889C4.00057 2.81664 4.05093 2.638 4.14564 2.4822C4.24035 2.32639 4.37584 2.19932 4.53751 2.11467C4.69919 2.03001 4.88093 1.99097 5.06318 2.00176C5.24543 2.01254 5.42128 2.07273 5.5718 2.17586L18.595 11.1761C19.135 11.5491 19.135 12.4472 18.595 12.8212L5.5718 21.8214C5.42159 21.9256 5.24565 21.9867 5.0631 21.9981C4.88055 22.0094 4.69837 21.9706 4.53635 21.8859C4.37433 21.8012 4.23867 21.6737 4.14411 21.5174C4.04956 21.3612 3.99971 21.182 4 20.9994Z" fill="white"/>
</svg>
