<svg width="24" height="24" viewBox="0 0 24 24" fill="none" xmlns="http://www.w3.org/2000/svg">
<path d="M8.24186 5.34901C8.1646 5.27268 8.1042 5.18288 8.06411 5.08476C8.02402 4.98663 8.00503 4.8821 8.00821 4.77712C8.01139 4.67214 8.03668 4.56877 8.08265 4.47292C8.12862 4.37706 8.19436 4.2906 8.27611 4.21847C8.35787 4.14634 8.45404 4.08995 8.55914 4.05252C8.66424 4.01509 8.7762 3.99735 8.88864 4.00032C9.00108 4.00329 9.1118 4.02691 9.21446 4.06983C9.31712 4.11274 9.40973 4.17412 9.48699 4.25045L16.7659 11.4462C16.9162 11.5947 17 11.7912 17 11.9955C17 12.1998 16.9162 12.3963 16.7659 12.5448L9.48699 19.7414C9.41024 19.8194 9.31766 19.8824 9.21461 19.9267C9.11157 19.971 9.00013 19.9957 8.88675 19.9995C8.77338 20.0033 8.66033 19.9859 8.55418 19.9486C8.44803 19.9112 8.35089 19.8545 8.26841 19.7818C8.18593 19.7091 8.11974 19.6218 8.0737 19.525C8.02765 19.4282 8.00267 19.3238 8.0002 19.2179C7.99773 19.112 8.01782 19.0067 8.05931 18.9081C8.10079 18.8095 8.16285 18.7196 8.24186 18.6436L14.9659 11.9955L8.24186 5.34901Z" fill="white"/>
</svg>
