<svg width="24" height="24" viewBox="0 0 24 24" fill="none" xmlns="http://www.w3.org/2000/svg">
<path d="M18.651 15.7581C18.7273 15.8354 18.8171 15.8958 18.9152 15.9359C19.0134 15.976 19.1179 15.995 19.2229 15.9918C19.3279 15.9886 19.4312 15.9633 19.5271 15.9173C19.6229 15.8714 19.7094 15.8056 19.7815 15.7239C19.8537 15.6421 19.9101 15.546 19.9475 15.4409C19.9849 15.3358 20.0026 15.2238 19.9997 15.1114C19.9967 14.9989 19.9731 14.8882 19.9302 14.7855C19.8873 14.6829 19.8259 14.5903 19.7495 14.513L12.5538 7.23408C12.4053 7.08376 12.2088 7 12.0045 7C11.8002 7 11.6037 7.08376 11.4552 7.23408L4.25864 14.513C4.18064 14.5898 4.11765 14.6823 4.07333 14.7854C4.02902 14.8884 4.00426 14.9999 4.0005 15.1132C3.99674 15.2266 4.01405 15.3397 4.05143 15.4458C4.0888 15.552 4.14549 15.6491 4.21822 15.7316C4.29094 15.8141 4.37824 15.8803 4.47504 15.9263C4.57185 15.9723 4.67623 15.9973 4.78212 15.9998C4.88802 16.0023 4.99331 15.9822 5.0919 15.9407C5.19048 15.8992 5.28039 15.8372 5.35639 15.7581L12.0045 9.03411L18.651 15.7581Z" fill="white"/>
</svg>
