<svg width="24" height="24" viewBox="0 0 24 24" fill="none" xmlns="http://www.w3.org/2000/svg">
<path fill-rule="evenodd" clip-rule="evenodd" d="M4 8.12143C4 6.96205 4.47411 5.85016 5.31802 5.03036C6.16193 4.21056 7.30653 3.75 8.5 3.75H18.5C18.8978 3.75 19.2794 3.90352 19.5607 4.17679C19.842 4.45005 20 4.82068 20 5.20714V19.7786C20 20.0362 19.8946 20.2833 19.7071 20.4655C19.5196 20.6477 19.2652 20.75 19 20.75H7.5C6.65822 20.7502 5.84455 20.4557 5.20815 19.9204C4.57175 19.3852 4.15525 18.6451 4.035 17.8357H4V8.12143ZM18.5 16.5405H7.5C6.96957 16.5405 6.46086 16.6046 6.08579 16.969C5.71071 17.3333 5.71429 17.6738 5.71429 17.8357C5.71429 18.2 5.71071 18.4496 6.08579 18.8139C6.46086 19.1783 6.96957 19.2929 7.5 19.2929H18.5V16.5405ZM8.25 8.12143C8.25 7.9282 8.32902 7.74288 8.46967 7.60625C8.61032 7.46962 8.80109 7.39286 9 7.39286H16C16.1989 7.39286 16.3897 7.46962 16.5303 7.60625C16.671 7.74288 16.75 7.9282 16.75 8.12143C16.75 8.31466 16.671 8.49997 16.5303 8.63661C16.3897 8.77324 16.1989 8.85 16 8.85H9C8.80109 8.85 8.61032 8.77324 8.46967 8.63661C8.32902 8.49997 8.25 8.31466 8.25 8.12143ZM9 10.3071C8.80109 10.3071 8.61032 10.3839 8.46967 10.5205C8.32902 10.6572 8.25 10.8425 8.25 11.0357C8.25 11.2289 8.32902 11.4143 8.46967 11.5509C8.61032 11.6875 8.80109 11.7643 9 11.7643H14C14.1989 11.7643 14.3897 11.6875 14.5303 11.5509C14.671 11.4143 14.75 11.2289 14.75 11.0357C14.75 10.8425 14.671 10.6572 14.5303 10.5205C14.3897 10.3839 14.1989 10.3071 14 10.3071H9Z" fill="white"/>
</svg>
