<svg width="24" height="24" viewBox="0 0 24 24" fill="none" xmlns="http://www.w3.org/2000/svg">
<path fill-rule="evenodd" clip-rule="evenodd" d="M15.3873 4C15.8887 4.00002 16.3801 4.13688 16.8066 4.39527C17.2331 4.65365 17.5777 5.02335 17.802 5.46294L19.0494 7.90794C19.269 7.81971 19.485 7.72441 19.6974 7.62206C19.911 7.51745 20.1582 7.50033 20.3847 7.57447C20.6112 7.6486 20.7984 7.80791 20.9051 8.01735C21.0118 8.2268 21.0293 8.46921 20.9537 8.69128C20.8781 8.91334 20.7156 9.09687 20.5019 9.20147C20.2856 9.29586 20.0681 9.38763 19.8494 9.47676L20.7143 11.1735C20.9021 11.5414 20.9997 11.9472 20.9996 12.3585V14.5882C20.9996 14.9607 20.9195 15.3289 20.7644 15.6689C20.6093 16.0088 20.3828 16.3129 20.0996 16.5612V17.6765C20.0996 18.0275 19.9574 18.3641 19.7042 18.6123C19.4511 18.8606 19.1077 19 18.7497 19C18.3916 19 18.0483 18.8606 17.7951 18.6123C17.5419 18.3641 17.3997 18.0275 17.3997 17.6765V17.2353H6.59992V17.6765C6.59992 18.0275 6.4577 18.3641 6.20453 18.6123C5.95136 18.8606 5.60799 19 5.24995 19C4.89192 19 4.54855 18.8606 4.29538 18.6123C4.04221 18.3641 3.89998 18.0275 3.89998 17.6765V16.5612C3.34739 16.0759 3 15.3718 3 14.5882V12.3576C3.00017 11.9469 3.09784 11.5418 3.28529 11.1744L4.14298 9.49088C3.92578 9.40147 3.71129 9.30529 3.49949 9.20235C3.28694 9.09639 3.12538 8.91278 3.04962 8.69112C2.97386 8.46945 2.98998 8.22748 3.0945 8.01735C3.14729 7.91361 3.22042 7.82109 3.3097 7.74507C3.39898 7.66906 3.50267 7.61103 3.61483 7.57432C3.727 7.53761 3.84544 7.52293 3.9634 7.53112C4.08135 7.53931 4.1965 7.57021 4.30227 7.62206C4.51527 7.725 4.73126 7.82029 4.95026 7.90794L6.19763 5.46382C6.42177 5.02406 6.76639 4.65419 7.19288 4.39564C7.61936 4.1371 8.11085 4.0001 8.61228 4H15.3873ZM7.9499 11.9412C7.59186 11.9412 7.24849 12.0806 6.99532 12.3288C6.74215 12.577 6.59992 12.9137 6.59992 13.2647C6.59992 13.6157 6.74215 13.9524 6.99532 14.2006C7.24849 14.4488 7.59186 14.5882 7.9499 14.5882C8.30793 14.5882 8.6513 14.4488 8.90447 14.2006C9.15764 13.9524 9.29987 13.6157 9.29987 13.2647C9.29987 12.9137 9.15764 12.577 8.90447 12.3288C8.6513 12.0806 8.30793 11.9412 7.9499 11.9412ZM16.0497 11.9412C15.6917 11.9412 15.3483 12.0806 15.0952 12.3288C14.842 12.577 14.6998 12.9137 14.6998 13.2647C14.6998 13.6157 14.842 13.9524 15.0952 14.2006C15.3483 14.4488 15.6917 14.5882 16.0497 14.5882C16.4078 14.5882 16.7511 14.4488 17.0043 14.2006C17.2575 13.9524 17.3997 13.6157 17.3997 13.2647C17.3997 12.9137 17.2575 12.577 17.0043 12.3288C16.7511 12.0806 16.4078 11.9412 16.0497 11.9412ZM15.3873 5.76471H8.61228C8.46415 5.76468 8.31831 5.80051 8.18769 5.869C8.05707 5.9375 7.94571 6.03654 7.8635 6.15735L7.8077 6.25265L6.66472 8.49206C8.05789 8.90147 9.93526 9.29412 11.9998 9.29412C13.9276 9.29412 15.6906 8.95176 17.0487 8.57324L17.334 8.49206L16.1919 6.25265C16.1257 6.12278 16.0278 6.01094 15.9069 5.92706C15.786 5.84317 15.6459 5.78983 15.4989 5.77176L15.3882 5.76471H15.3873Z" fill="white"/>
</svg>
