<svg width="20" height="20" viewBox="0 0 20 20" fill="none" xmlns="http://www.w3.org/2000/svg">
<path fill-rule="evenodd" clip-rule="evenodd" d="M7.79478 2.39891C8.97399 2.05699 10.2169 1.99434 11.4247 2.21532C12.6323 2.43632 13.7721 2.93511 14.7538 3.67235C15.7354 4.40967 16.5331 5.36514 17.0819 6.46337C17.6306 7.56157 17.9165 8.77281 17.9168 10.0005C17.917 11.4175 17.5361 12.8088 16.8153 14.0288C16.0943 15.2489 15.0587 16.2536 13.8172 16.937C12.5759 17.6203 11.1739 17.9579 9.75767 17.9145C8.40797 17.8732 7.09226 17.4866 5.9354 16.7944L2.63169 17.896C2.48207 17.9459 2.31653 17.9068 2.20493 17.7954C2.09346 17.6838 2.05454 17.5183 2.10435 17.3686L3.20689 14.061C2.61287 13.0668 2.24095 11.9551 2.12388 10.8013C2.00006 9.57984 2.16163 8.34581 2.59654 7.19774C3.03154 6.0496 3.72758 5.01785 4.62974 4.18505C5.53188 3.35229 6.61563 2.74088 7.79478 2.39891ZM6.66587 11.9175C6.34392 11.9177 6.08286 12.1785 6.08286 12.5005C6.08294 12.8224 6.34396 13.0832 6.66587 13.0835H9.99888C10.321 13.0835 10.5828 12.8226 10.5829 12.5005C10.5829 12.1783 10.321 11.9175 9.99888 11.9175H6.66587ZM6.66587 9.41747C6.34392 9.41772 6.08286 9.67846 6.08286 10.0005C6.08294 10.3224 6.34396 10.5832 6.66587 10.5835H13.3329C13.6548 10.5833 13.9158 10.3225 13.9159 10.0005C13.9159 9.67842 13.6549 9.41765 13.3329 9.41747H6.66587ZM6.66587 6.91747C6.34392 6.91772 6.08286 7.17846 6.08286 7.50048C6.08294 7.82243 6.34396 8.08324 6.66587 8.08348H13.3329C13.6548 8.08331 13.9158 7.82247 13.9159 7.50048C13.9159 7.17842 13.6549 6.91765 13.3329 6.91747H6.66587Z" fill="#AAB1B2"/>
</svg>
