<svg width="24" height="24" viewBox="0 0 24 24" fill="none" xmlns="http://www.w3.org/2000/svg">
<path d="M8 8.99985H16M8 11.9999H16M8 14.9999H12M21 11.9999C21.0002 13.611 20.568 15.1927 19.7483 16.5798C18.9287 17.9669 17.7517 19.1085 16.3402 19.8855C14.9288 20.6625 13.3347 21.0463 11.7242 20.997C10.1138 20.9476 8.5462 20.4668 7.185 19.6048L3 20.9998L4.395 16.8149C3.64855 15.6354 3.18668 14.2984 3.0459 12.9097C2.90511 11.521 3.08927 10.1185 3.58382 8.81325C4.07837 7.50795 4.86975 6.33558 5.8954 5.38879C6.92106 4.44201 8.15288 3.74677 9.4935 3.35803C10.8341 2.96929 12.2468 2.8977 13.6198 3.14892C14.9929 3.40015 16.2887 3.96729 17.4048 4.80554C18.5209 5.64379 19.4267 6.73015 20.0507 7.97876C20.6747 9.22738 20.9997 10.604 21 11.9999Z" stroke="white" stroke-linecap="round" stroke-linejoin="round"/>
</svg>
