<svg width="24" height="24" viewBox="0 0 24 24" fill="none" xmlns="http://www.w3.org/2000/svg">
<path fill-rule="evenodd" clip-rule="evenodd" d="M12 22C13.3132 22 14.6136 21.7413 15.8268 21.2388C17.0401 20.7362 18.1425 19.9997 19.0711 19.0711C19.9997 18.1425 20.7362 17.0401 21.2388 15.8268C21.7413 14.6136 22 13.3132 22 12C22 10.6868 21.7413 9.38642 21.2388 8.17317C20.7362 6.95991 19.9997 5.85752 19.0711 4.92893C18.1425 4.00035 17.0401 3.26375 15.8268 2.7612C14.6136 2.25866 13.3132 2 12 2C9.34784 2 6.8043 3.05357 4.92893 4.92893C3.05357 6.8043 2 9.34784 2 12C2 14.6522 3.05357 17.1957 4.92893 19.0711C6.8043 20.9464 9.34784 22 12 22ZM17.2978 9.37778C17.3953 9.26627 17.4696 9.13638 17.5162 8.99574C17.5628 8.85511 17.5808 8.70657 17.5692 8.55887C17.5575 8.41117 17.5165 8.26729 17.4484 8.1357C17.3804 8.0041 17.2866 7.88745 17.1728 7.7926C17.059 7.69775 16.9274 7.62663 16.7857 7.5834C16.644 7.54018 16.495 7.52574 16.3476 7.54092C16.2003 7.5561 16.0574 7.60061 15.9275 7.67181C15.7976 7.74302 15.6832 7.83949 15.5911 7.95556L11.5933 12.7522C11.2078 13.2144 10.9911 13.4711 10.8189 13.6278L10.8122 13.6344L10.8044 13.6289C10.6178 13.4878 10.3789 13.2522 9.95445 12.8267L8.34111 11.2144C8.13155 11.012 7.85088 10.9001 7.55956 10.9026C7.26823 10.9051 6.98954 11.022 6.78354 11.228C6.57753 11.434 6.46067 11.7127 6.45814 12.004C6.45561 12.2953 6.5676 12.576 6.77 12.7856L8.38222 14.3978L8.42778 14.4433C8.79111 14.8067 9.13889 15.1556 9.46445 15.4011C9.82778 15.6767 10.3044 15.9344 10.9144 15.9078C11.5256 15.88 11.9767 15.5789 12.3144 15.2722C12.6144 14.9978 12.9311 14.6189 13.2589 14.2244L13.3 14.1756L17.2978 9.37778Z" fill="white"/>
</svg>
