<svg width="24" height="24" viewBox="0 0 24 24" fill="none" xmlns="http://www.w3.org/2000/svg">
<path d="M2 16.375C2 15.8438 2.13273 15.3556 2.39818 14.9106C2.66364 14.4656 3.01576 14.1256 3.45455 13.8906C4.39394 13.4063 5.34848 13.0431 6.31818 12.8013C7.28788 12.5594 8.27273 12.4381 9.27273 12.4375C10.2727 12.4369 11.2576 12.5581 12.2273 12.8013C13.197 13.0444 14.1515 13.4075 15.0909 13.8906C15.5303 14.125 15.8827 14.465 16.1482 14.9106C16.4136 15.3563 16.5461 15.8444 16.5455 16.375V17.125C16.5455 17.6406 16.3676 18.0822 16.0118 18.4497C15.6561 18.8172 15.2279 19.0006 14.7273 19H3.81818C3.31818 19 2.8903 18.8166 2.53455 18.4497C2.17879 18.0828 2.00061 17.6413 2 17.125V16.375ZM17.8636 19C18.0303 18.7187 18.1555 18.4181 18.2391 18.0981C18.3227 17.7781 18.3642 17.4538 18.3636 17.125V16.1875C18.3636 15.5 18.1782 14.8397 17.8073 14.2066C17.4364 13.5734 16.9097 13.0306 16.2273 12.5781C17 12.6719 17.7273 12.8322 18.4091 13.0591C19.0909 13.2859 19.7273 13.5631 20.3182 13.8906C20.8636 14.2031 21.2803 14.5506 21.5682 14.9331C21.8561 15.3156 22 15.7338 22 16.1875V17.125C22 17.6406 21.8221 18.0822 21.4664 18.4497C21.1106 18.8172 20.6824 19.0006 20.1818 19H17.8636ZM9.27273 11.5C8.27273 11.5 7.41667 11.1328 6.70455 10.3985C5.99242 9.66408 5.63636 8.78127 5.63636 7.75002C5.63636 6.71877 5.99242 5.83596 6.70455 5.10158C7.41667 4.36721 8.27273 4.00002 9.27273 4.00002C10.2727 4.00002 11.1288 4.36721 11.8409 5.10158C12.553 5.83596 12.9091 6.71877 12.9091 7.75002C12.9091 8.78127 12.553 9.66408 11.8409 10.3985C11.1288 11.1328 10.2727 11.5 9.27273 11.5ZM18.3636 7.75002C18.3636 8.78127 18.0076 9.66408 17.2955 10.3985C16.5833 11.1328 15.7273 11.5 14.7273 11.5C14.5606 11.5 14.3485 11.4806 14.0909 11.4419C13.8333 11.4031 13.6212 11.36 13.4545 11.3125C13.8636 10.8125 14.1782 10.2578 14.3982 9.64845C14.6182 9.03908 14.7279 8.40627 14.7273 7.75002C14.7267 7.09377 14.617 6.46096 14.3982 5.85158C14.1794 5.24221 13.8648 4.68752 13.4545 4.18752C13.6667 4.1094 13.8788 4.05846 14.0909 4.03471C14.303 4.01096 14.5152 3.9994 14.7273 4.00002C15.7273 4.00002 16.5833 4.36721 17.2955 5.10158C18.0076 5.83596 18.3636 6.71877 18.3636 7.75002Z" fill="white"/>
</svg>
