<svg width="24" height="24" viewBox="0 0 24 24" fill="none" xmlns="http://www.w3.org/2000/svg">
<path fill-rule="evenodd" clip-rule="evenodd" d="M10.8397 11.319C11.4163 11.2235 11.9304 10.9086 12.2689 10.4435C12.6074 9.97841 12.7425 9.40128 12.6447 8.83903L11.766 3.79045C11.7175 3.51198 11.6132 3.24555 11.4591 3.00638C11.305 2.76721 11.1041 2.55999 10.8678 2.39655C10.6316 2.23312 10.3646 2.11666 10.0822 2.05385C9.79975 1.99104 9.5074 1.98309 9.22183 2.03046L3.83702 2.9225C3.26042 3.01803 2.74636 3.33296 2.40787 3.79803C2.06939 4.26311 1.93422 4.84024 2.03208 5.40249L2.91073 10.4511C2.95923 10.7295 3.06352 10.996 3.21764 11.2351C3.37175 11.4743 3.57268 11.6815 3.80894 11.845C4.0452 12.0084 4.31216 12.1249 4.59459 12.1877C4.87701 12.2505 5.16936 12.2584 5.45493 12.2111L10.8397 11.319ZM6.24889 7.12119C6.24889 6.83921 6.36377 6.56877 6.56825 6.36938C6.77273 6.16999 7.05008 6.05797 7.33926 6.05797C7.62844 6.05797 7.90578 6.16999 8.11027 6.36938C8.31475 6.56877 8.42963 6.83921 8.42963 7.12119C8.42963 7.40318 8.31475 7.67361 8.11027 7.873C7.90578 8.0724 7.62844 8.18441 7.33926 8.18441C7.05008 8.18441 6.77273 8.0724 6.56825 7.873C6.36377 7.67361 6.24889 7.40318 6.24889 7.12119ZM19.2142 20.8803C18.9339 21.3808 18.4612 21.7522 17.9 21.9129C17.3389 22.0736 16.7352 22.0103 16.2219 21.737L11.4282 19.1839C10.9149 18.9106 10.5339 18.4496 10.3692 17.9024C10.2044 17.3553 10.2693 16.7667 10.5495 16.2661L13.0664 11.7724C13.3467 11.2718 13.8194 10.9004 14.3806 10.7397C14.9417 10.5791 15.5454 10.6423 16.0587 10.9156L20.8533 13.4687C21.3665 13.7422 21.7472 14.2032 21.9118 14.7504C22.0764 15.2976 22.0114 15.8861 21.7311 16.3865L19.2142 20.8803ZM15.5003 13.4429C15.2111 13.4429 14.9338 13.5549 14.7293 13.7543C14.5248 13.9537 14.4099 14.2241 14.4099 14.5061C14.4099 14.7881 14.5248 15.0585 14.7293 15.2579C14.9338 15.4573 15.2111 15.5693 15.5003 15.5693C15.7895 15.5693 16.0668 15.4573 16.2713 15.2579C16.4758 15.0585 16.5907 14.7881 16.5907 14.5061C16.5907 14.2241 16.4758 13.9537 16.2713 13.7543C16.0668 13.5549 15.7895 13.4429 15.5003 13.4429ZM15.6503 17.9762C15.6503 17.6942 15.7651 17.4238 15.9696 17.2244C16.1741 17.025 16.4514 16.913 16.7406 16.913C17.0298 16.913 17.3071 17.025 17.5116 17.2244C17.7161 17.4238 17.831 17.6942 17.831 17.9762C17.831 18.2582 17.7161 18.5286 17.5116 18.728C17.3071 18.9274 17.0298 19.0394 16.7406 19.0394C16.4514 19.0394 16.1741 18.9274 15.9696 18.728C15.7651 18.5286 15.6503 18.2582 15.6503 17.9762Z" fill="white"/>
</svg>
