<svg width="16" height="17" viewBox="0 0 16 17" fill="none" xmlns="http://www.w3.org/2000/svg">
<path fill-rule="evenodd" clip-rule="evenodd" d="M0 4.37143C0 3.21205 0.474106 2.10016 1.31802 1.28036C2.16193 0.46056 3.30653 0 4.5 0H14.5C14.8978 0 15.2794 0.15352 15.5607 0.426787C15.842 0.700055 16 1.07068 16 1.45714V16.0286C16 16.2862 15.8946 16.5333 15.7071 16.7155C15.5196 16.8977 15.2652 17 15 17H3.5C2.65822 17.0002 1.84455 16.7057 1.20815 16.1704C0.571754 15.6352 0.155255 14.8951 0.0349998 14.0857H0V4.37143ZM14.5 12.7905H3.5C2.96957 12.7905 2.46086 12.8546 2.08579 13.219C1.71071 13.5833 1.71429 13.9238 1.71429 14.0857C1.71429 14.45 1.71071 14.6996 2.08579 15.0639C2.46086 15.4283 2.96957 15.5429 3.5 15.5429H14.5V12.7905ZM4.25 4.37143C4.25 4.1782 4.32902 3.99288 4.46967 3.85625C4.61032 3.71962 4.80109 3.64286 5 3.64286H12C12.1989 3.64286 12.3897 3.71962 12.5303 3.85625C12.671 3.99288 12.75 4.1782 12.75 4.37143C12.75 4.56466 12.671 4.74997 12.5303 4.88661C12.3897 5.02324 12.1989 5.1 12 5.1H5C4.80109 5.1 4.61032 5.02324 4.46967 4.88661C4.32902 4.74997 4.25 4.56466 4.25 4.37143ZM5 6.55714C4.80109 6.55714 4.61032 6.6339 4.46967 6.77054C4.32902 6.90717 4.25 7.09249 4.25 7.28571C4.25 7.47894 4.32902 7.66426 4.46967 7.80089C4.61032 7.93753 4.80109 8.01429 5 8.01429H10C10.1989 8.01429 10.3897 7.93753 10.5303 7.80089C10.671 7.66426 10.75 7.47894 10.75 7.28571C10.75 7.09249 10.671 6.90717 10.5303 6.77054C10.3897 6.6339 10.1989 6.55714 10 6.55714H5Z" fill="#56BAE5"/>
</svg>
