<svg width="24" height="24" viewBox="0 0 24 24" fill="none" xmlns="http://www.w3.org/2000/svg">
<path d="M4.7992 11.1C5.02862 11.1003 5.24928 11.1881 5.4161 11.3456C5.58292 11.503 5.68331 11.7183 5.69676 11.9473C5.7102 12.1763 5.63569 12.4017 5.48844 12.5776C5.34119 12.7536 5.13233 12.8666 4.90451 12.8937L4.7992 12.9H3.8991C3.66969 12.8997 3.44902 12.8119 3.2822 12.6544C3.11538 12.497 3.01499 12.2817 3.00155 12.0527C2.9881 11.8237 3.06262 11.5983 3.20986 11.4224C3.35711 11.2464 3.56598 11.1334 3.79379 11.1063L3.8991 11.1H4.7992ZM12 3C12.2205 3.00003 12.4333 3.08096 12.598 3.22744C12.7628 3.37393 12.868 3.57577 12.8938 3.7947L12.9001 3.9V4.8C12.8998 5.02939 12.812 5.25003 12.6545 5.41683C12.497 5.58363 12.2818 5.68401 12.0528 5.69745C11.8237 5.7109 11.5982 5.63639 11.4223 5.48916C11.2464 5.34193 11.1333 5.13309 11.1062 4.9053L11.0999 4.8V3.9C11.0999 3.66131 11.1947 3.43239 11.3635 3.2636C11.5323 3.09482 11.7613 3 12 3ZM20.1009 11.1C20.3303 11.1003 20.551 11.1881 20.7178 11.3456C20.8846 11.503 20.985 11.7183 20.9985 11.9473C21.0119 12.1763 20.9374 12.4017 20.7901 12.5776C20.6429 12.7536 20.434 12.8666 20.2062 12.8937L20.1009 12.9H19.2008C18.9714 12.8997 18.7507 12.8119 18.5839 12.6544C18.4171 12.497 18.3167 12.2817 18.3032 12.0527C18.2898 11.8237 18.3643 11.5983 18.5116 11.4224C18.6588 11.2464 18.8677 11.1334 19.0955 11.1063L19.2008 11.1H20.1009ZM5.60299 5.6037C5.75798 5.44874 5.96419 5.35565 6.18294 5.3419C6.40169 5.32815 6.61794 5.39467 6.79112 5.529L6.87573 5.6037L7.5058 6.2337C7.66723 6.39566 7.76096 6.61299 7.76794 6.84155C7.77492 7.0701 7.69463 7.29274 7.54338 7.46425C7.39214 7.63576 7.18127 7.74327 6.95361 7.76496C6.72596 7.78664 6.49858 7.72087 6.31767 7.581L6.23306 7.5063L5.60299 6.8763C5.43425 6.70753 5.33945 6.47865 5.33945 6.24C5.33945 6.00135 5.43425 5.77248 5.60299 5.6037ZM17.1243 5.6037C17.2862 5.44229 17.5036 5.34857 17.7322 5.34159C17.9608 5.33462 18.1834 5.41489 18.355 5.56612C18.5265 5.71735 18.634 5.9282 18.6557 6.15583C18.6774 6.38346 18.6116 6.61081 18.4717 6.7917L18.397 6.8763L17.7669 7.5063C17.605 7.66771 17.3876 7.76143 17.159 7.76841C16.9304 7.77538 16.7078 7.69511 16.5363 7.54388C16.3647 7.39265 16.2572 7.1818 16.2355 6.95417C16.2138 6.72654 16.2796 6.49919 16.4195 6.3183L16.4942 6.2337L17.1243 5.6037ZM13.8002 17.4C14.0389 17.4 14.2679 17.4948 14.4367 17.6636C14.6055 17.8324 14.7003 18.0613 14.7003 18.3C14.7003 19.0161 14.4158 19.7028 13.9094 20.2092C13.403 20.7155 12.7162 21 12 21C11.2838 21 10.597 20.7155 10.0906 20.2092C9.5842 19.7028 9.2997 19.0161 9.2997 18.3C9.29973 18.0796 9.38067 17.8668 9.52717 17.7021C9.67367 17.5373 9.87554 17.4321 10.0945 17.4063L10.1998 17.4H13.8002ZM12 6.6C13.1335 6.6 14.2382 6.9566 15.1578 7.61929C16.0773 8.28198 16.765 9.21716 17.1235 10.2924C17.4819 11.3676 17.4929 12.5283 17.1549 13.6101C16.817 14.6919 16.1472 15.64 15.2404 16.32C15.1163 16.4132 14.9703 16.4727 14.8164 16.4928L14.7003 16.5H9.2997C9.10495 16.5 8.91544 16.4368 8.75964 16.32C7.85285 15.64 7.18303 14.6919 6.84506 13.6101C6.50709 12.5283 6.5181 11.3676 6.87654 10.2924C7.23498 9.21716 7.92268 8.28198 8.84222 7.61929C9.76175 6.9566 10.8665 6.6 12 6.6Z" fill="white"/>
</svg>
