<svg width="24" height="24" viewBox="0 0 24 24" fill="none" xmlns="http://www.w3.org/2000/svg">
<path d="M21.25 16.787H9.895M5.534 16.787H2.75M5.534 16.787C5.534 16.2088 5.76368 15.6543 6.17251 15.2455C6.58134 14.8367 7.13583 14.607 7.714 14.607C8.29217 14.607 8.84666 14.8367 9.25549 15.2455C9.66432 15.6543 9.894 16.2088 9.894 16.787C9.894 17.3652 9.66432 17.9197 9.25549 18.3285C8.84666 18.7373 8.29217 18.967 7.714 18.967C7.13583 18.967 6.58134 18.7373 6.17251 18.3285C5.76368 17.9197 5.534 17.3652 5.534 16.787ZM21.25 8.18H17.145M12.784 8.18H2.75M12.784 8.18C12.784 7.60183 13.0137 7.04734 13.4225 6.63851C13.8313 6.22968 14.3858 6 14.964 6C15.2503 6 15.5338 6.05639 15.7983 6.16594C16.0627 6.2755 16.3031 6.43608 16.5055 6.63851C16.7079 6.84094 16.8685 7.08126 16.9781 7.34575C17.0876 7.61024 17.144 7.89372 17.144 8.18C17.144 8.46628 17.0876 8.74976 16.9781 9.01425C16.8685 9.27874 16.7079 9.51906 16.5055 9.72149C16.3031 9.92392 16.0627 10.0845 15.7983 10.1941C15.5338 10.3036 15.2503 10.36 14.964 10.36C14.3858 10.36 13.8313 10.1303 13.4225 9.72149C13.0137 9.31266 12.784 8.75817 12.784 8.18Z" stroke="white" stroke-width="1.5" stroke-miterlimit="10" stroke-linecap="round"/>
</svg>
