<svg width="24" height="24" viewBox="0 0 24 24" fill="none" xmlns="http://www.w3.org/2000/svg">
<path d="M7.5 6.37549V5.81299C7.5 4.25908 10.5234 3.00049 14.25 3.00049C17.9766 3.00049 21 4.25908 21 5.81299V6.37549C21 7.45127 19.548 8.38643 17.4141 8.86103C17.3297 8.7626 17.2418 8.66768 17.1539 8.57978C16.609 8.04189 15.9059 7.63408 15.1711 7.33174C13.698 6.7165 11.7785 6.379 9.75 6.379C8.98008 6.379 8.22773 6.42822 7.50703 6.52314C7.5 6.47744 7.5 6.42822 7.5 6.379V6.37549ZM18.1875 15.4106V13.7864C18.7184 13.6493 19.2176 13.4876 19.6711 13.2978C20.1352 13.1044 20.5887 12.8688 21 12.5841V13.1255C21 14.0677 19.8926 14.9009 18.1875 15.4106ZM18.1875 12.0356V10.8755C18.1875 10.7173 18.1734 10.5661 18.1523 10.4185C18.6973 10.2813 19.207 10.1161 19.6711 9.91924C20.1352 9.72236 20.5887 9.49033 21 9.20557V9.74697C21 10.6892 19.8926 11.5224 18.1875 12.0321V12.0356ZM3 11.438V10.8755C3 9.32158 6.02344 8.06299 9.75 8.06299C13.4766 8.06299 16.5 9.32158 16.5 10.8755V11.438C16.5 12.9919 13.4766 14.2505 9.75 14.2505C6.02344 14.2505 3 12.9919 3 11.438ZM16.5 14.813C16.5 16.3669 13.4766 17.6255 9.75 17.6255C6.02344 17.6255 3 16.3669 3 14.813V14.2716C3.40781 14.5563 3.86133 14.7884 4.32891 14.9853C5.80195 15.6005 7.72148 15.938 9.75 15.938C11.7785 15.938 13.698 15.597 15.1711 14.9853C15.6352 14.7919 16.0887 14.5563 16.5 14.2716V14.813ZM16.5 17.6466V18.188C16.5 19.7419 13.4766 21.0005 9.75 21.0005C6.02344 21.0005 3 19.7419 3 18.188V17.6466C3.40781 17.9313 3.86133 18.1634 4.32891 18.3603C5.80195 18.9755 7.72148 19.313 9.75 19.313C11.7785 19.313 13.698 18.972 15.1711 18.3603C15.6352 18.1669 16.0887 17.9313 16.5 17.6466Z" fill="white"/>
</svg>
