<svg width="24" height="24" viewBox="0 0 24 24" fill="none" xmlns="http://www.w3.org/2000/svg">
<path d="M20.1 6.64706C20.3387 6.64706 20.5676 6.74002 20.7364 6.90549C20.9052 7.07097 21 7.2954 21 7.52941C21 7.76343 20.9052 7.98786 20.7364 8.15333C20.5676 8.3188 20.3387 8.41176 20.1 8.41176V17.2353C20.3387 17.2353 20.5676 17.3283 20.7364 17.4937C20.9052 17.6592 21 17.8836 21 18.1176C21 18.3517 20.9052 18.5761 20.7364 18.7416C20.5676 18.907 20.3387 19 20.1 19H3.9C3.66131 19 3.43239 18.907 3.2636 18.7416C3.09482 18.5761 3 18.3517 3 18.1176C3 17.8836 3.09482 17.6592 3.2636 17.4937C3.43239 17.3283 3.66131 17.2353 3.9 17.2353V8.41176C3.66131 8.41176 3.43239 8.3188 3.2636 8.15333C3.09482 7.98786 3 7.76343 3 7.52941C3 7.2954 3.09482 7.07097 3.2636 6.90549C3.43239 6.74002 3.66131 6.64706 3.9 6.64706H20.1ZM7.5 10.1765C7.2613 10.1765 7.03239 10.2694 6.8636 10.4349C6.69482 10.6004 6.6 10.8248 6.6 11.0588V17.2353H8.4V11.0588C8.4 10.8248 8.30518 10.6004 8.1364 10.4349C7.96761 10.2694 7.73869 10.1765 7.5 10.1765ZM12 10.1765C11.7613 10.1765 11.5324 10.2694 11.3636 10.4349C11.1948 10.6004 11.1 10.8248 11.1 11.0588V17.2353H12.9V11.0588C12.9 10.8248 12.8052 10.6004 12.6364 10.4349C12.4676 10.2694 12.2387 10.1765 12 10.1765ZM16.5 10.1765C16.2613 10.1765 16.0324 10.2694 15.8636 10.4349C15.6948 10.6004 15.6 10.8248 15.6 11.0588V17.2353H17.4V11.0588C17.4 10.8248 17.3052 10.6004 17.1364 10.4349C16.9676 10.2694 16.7387 10.1765 16.5 10.1765ZM17.4 4C17.6387 4 17.8676 4.09296 18.0364 4.25844C18.2052 4.42391 18.3 4.64834 18.3 4.88235C18.3 5.11637 18.2052 5.3408 18.0364 5.50627C17.8676 5.67174 17.6387 5.76471 17.4 5.76471H6.6C6.3613 5.76471 6.13239 5.67174 5.9636 5.50627C5.79482 5.3408 5.7 5.11637 5.7 4.88235C5.7 4.64834 5.79482 4.42391 5.9636 4.25844C6.13239 4.09296 6.3613 4 6.6 4H17.4Z" fill="white"/>
</svg>
