<svg width="24" height="24" viewBox="0 0 24 24" fill="none" xmlns="http://www.w3.org/2000/svg">
<path fill-rule="evenodd" clip-rule="evenodd" d="M11.9984 2.78223C11.5877 2.78223 11.181 2.86199 10.8016 3.01696C10.4222 3.17193 10.0774 3.39907 9.78703 3.68542C9.49663 3.97177 9.26628 4.31171 9.10912 4.68585C8.95196 5.05998 8.87106 5.46097 8.87106 5.86593C8.87106 6.27088 8.95196 6.67188 9.10912 7.04601C9.26628 7.42014 9.49663 7.76008 9.78703 8.04643C10.0774 8.33278 10.4222 8.55992 10.8016 8.71489C11.181 8.86987 11.5877 8.94963 11.9984 8.94963C12.8278 8.94963 13.6232 8.62474 14.2097 8.04643C14.7962 7.46813 15.1257 6.68378 15.1257 5.86593C15.1257 5.04808 14.7962 4.26373 14.2097 3.68542C13.6232 3.10712 12.8278 2.78223 11.9984 2.78223ZM17.9697 10.9981C17.6254 10.6586 17.2131 10.3935 16.7592 10.2196C16.3052 10.0458 15.8196 9.9671 15.3331 9.98848C14.8466 10.0099 14.37 10.1309 13.9336 10.3438C13.4971 10.5568 13.1104 10.857 12.7981 11.2254L12.7005 11.3216C12.3111 11.7055 11.6856 11.7055 11.2962 11.3216L11.1442 11.1717C10.8349 10.8219 10.4574 10.5372 10.0341 10.3344C9.61081 10.1317 9.15047 10.015 8.6805 9.99141C8.21053 9.96783 7.74056 10.0378 7.2986 10.1971C6.85664 10.3565 6.45174 10.602 6.10805 10.9189C5.76435 11.2358 5.4889 11.6178 5.2981 12.042C5.10731 12.4661 5.00509 12.9238 4.99752 13.3878C4.98996 13.8517 5.07722 14.3125 5.25409 14.7425C5.43096 15.1724 5.69382 15.5629 6.02701 15.8906L6.03595 15.8994L7.04741 16.8959L11.5284 21.3153C11.787 21.5737 12.2057 21.5751 12.466 21.3183L16.9493 16.8959L17.9599 15.9003L17.9617 15.8985L17.9681 15.8922C17.9686 15.8917 17.969 15.8912 17.9693 15.8906C17.9696 15.89 17.9699 15.8895 17.9704 15.889C18.6278 15.2404 18.9971 14.3609 18.9971 13.4439C18.9971 12.5266 18.6275 11.6468 17.9697 10.9981Z" fill="white"/>
</svg>
