<svg width="14" height="19" viewBox="0 0 14 19" fill="none" xmlns="http://www.w3.org/2000/svg">
<path fill-rule="evenodd" clip-rule="evenodd" d="M7.00129 0C6.59061 -6.03433e-09 6.18395 0.0797623 5.80453 0.234733C5.42511 0.389703 5.08036 0.616847 4.78996 0.903195C4.49956 1.18954 4.26921 1.52949 4.11205 1.90362C3.95489 2.27775 3.87399 2.67874 3.87399 3.0837C3.87399 3.48866 3.95489 3.88965 4.11205 4.26378C4.26921 4.63791 4.49956 4.97786 4.78996 5.26421C5.08036 5.55055 5.42511 5.7777 5.80453 5.93267C6.18395 6.08764 6.59061 6.1674 7.00129 6.1674C7.8307 6.1674 8.62614 5.84251 9.21262 5.26421C9.79911 4.6859 10.1286 3.90155 10.1286 3.0837C10.1286 2.26585 9.79911 1.4815 9.21262 0.903195C8.62614 0.324889 7.8307 1.21869e-08 7.00129 0ZM12.9726 8.21586C12.6283 7.87634 12.216 7.61123 11.7621 7.43741C11.3082 7.26359 10.8225 7.18487 10.336 7.20625C9.84956 7.22763 9.37293 7.34865 8.93648 7.56161C8.50003 7.77456 8.11333 8.07479 7.80099 8.44317L7.70342 8.53938C7.31406 8.92331 6.68852 8.92331 6.29917 8.53938L6.14709 8.38943C5.83781 8.03971 5.46028 7.75497 5.03701 7.5522C4.61374 7.34943 4.1534 7.23277 3.68343 7.20919C3.21346 7.1856 2.74349 7.25557 2.30153 7.41491C1.85957 7.57426 1.45467 7.81972 1.11098 8.13667C0.767281 8.45362 0.491826 8.83557 0.301033 9.25973C0.11024 9.6839 0.0080147 10.1416 0.000452654 10.6056C-0.00710939 11.0695 0.0801464 11.5302 0.257018 11.9602C0.433889 12.3902 0.696754 12.7807 1.02994 13.1084L1.03888 13.1172L2.05033 14.1137L6.5313 18.533C6.78993 18.7915 7.20863 18.7928 7.46893 18.5361L11.9522 14.1137L12.9628 13.1181L12.9646 13.1163L12.971 13.1099C12.9715 13.1095 12.9719 13.109 12.9722 13.1084C12.9725 13.1078 12.9729 13.1073 12.9733 13.1068C13.6307 12.4582 14 11.5787 14 10.6617C14 9.74433 13.6305 8.86455 12.9726 8.21586Z" fill="#FF8080"/>
</svg>
