<svg width="24" height="24" viewBox="0 0 24 24" fill="none" xmlns="http://www.w3.org/2000/svg">
<path d="M12 3.625C12.1332 3.625 12.2639 3.66859 12.3721 3.75098L20.2471 9.75098C20.3248 9.81018 20.3884 9.8878 20.4326 9.97754C20.4768 10.0672 20.5 10.1666 20.5 10.2676V19.9824C20.4999 20.1553 20.4324 20.3196 20.3145 20.4395C20.1966 20.5592 20.0382 20.625 19.875 20.625H15.375C15.2118 20.625 15.0534 20.5592 14.9355 20.4395C14.8176 20.3196 14.7501 20.1553 14.75 19.9824V15.5537C14.75 15.1205 14.5802 14.7032 14.2764 14.3945C13.9723 14.0858 13.5584 13.9111 13.125 13.9111H10.875C10.4416 13.9111 10.0277 14.0858 9.72363 14.3945C9.41978 14.7032 9.25 15.1205 9.25 15.5537V19.9824C9.24993 20.1553 9.18239 20.3196 9.06445 20.4395C8.94662 20.5592 8.7882 20.625 8.625 20.625H4.125C3.9618 20.625 3.80338 20.5592 3.68555 20.4395C3.56761 20.3196 3.50007 20.1553 3.5 19.9824V10.2676C3.50004 10.1666 3.52324 10.0672 3.56738 9.97754C3.61155 9.8878 3.67522 9.81018 3.75293 9.75098L11.6279 3.75098C11.7361 3.66859 11.8668 3.625 12 3.625Z" stroke="white" stroke-linecap="round" stroke-linejoin="round"/>
</svg>
