<svg width="24" height="24" viewBox="0 0 24 24" fill="none" xmlns="http://www.w3.org/2000/svg">
<path d="M21 19.9821V10.2679C21 10.0904 20.9593 9.91545 20.8812 9.75676C20.8031 9.59806 20.6897 9.46003 20.55 9.35357L12.675 3.35357C12.4803 3.2052 12.2434 3.125 12 3.125C11.7566 3.125 11.5197 3.2052 11.325 3.35357L3.45 9.35357C3.31028 9.46003 3.19688 9.59806 3.11877 9.75676C3.04066 9.91545 3 10.0904 3 10.2679V19.9821C3 20.2852 3.11853 20.5759 3.32951 20.7903C3.54048 21.0046 3.82663 21.125 4.125 21.125H8.625C8.92337 21.125 9.20952 21.0046 9.4205 20.7903C9.63147 20.5759 9.75 20.2852 9.75 19.9821V15.5536C9.75 15.2505 9.86853 14.9598 10.0795 14.7455C10.2905 14.5311 10.5766 14.4107 10.875 14.4107H13.125C13.4234 14.4107 13.7095 14.5311 13.9205 14.7455C14.1315 14.9598 14.25 15.2505 14.25 15.5536V19.9821C14.25 20.2852 14.3685 20.5759 14.5795 20.7903C14.7905 21.0046 15.0766 21.125 15.375 21.125H19.875C20.1734 21.125 20.4595 21.0046 20.6705 20.7903C20.8815 20.5759 21 20.2852 21 19.9821Z" fill="white"/>
</svg>
