<svg width="24" height="24" viewBox="0 0 24 24" fill="none" xmlns="http://www.w3.org/2000/svg">
<path d="M4 18.025V9.55054C4 9.30094 4.06552 9.06467 4.19657 8.84173C4.32762 8.61878 4.50819 8.43516 4.73829 8.29087L10.8926 4.31492C11.2149 4.10497 11.5829 4 11.9966 4C12.4103 4 12.7806 4.10497 13.1074 4.31492L19.2617 8.28989C19.4926 8.43419 19.6731 8.61813 19.8034 8.84173C19.9345 9.06467 20 9.30094 20 9.55054V18.025C20 18.2863 19.8861 18.5141 19.6583 18.7085C19.4305 18.9028 19.1634 19 18.8571 19H14.9897C14.7276 19 14.5082 18.9246 14.3314 18.7738C14.1547 18.6224 14.0663 18.4352 14.0663 18.2122V13.5626C14.0663 13.3396 13.9779 13.1527 13.8011 13.0019C13.6236 12.8505 13.4042 12.7748 13.1429 12.7748H10.8571C10.5958 12.7748 10.3768 12.8505 10.2 13.0019C10.0225 13.1527 9.93371 13.3396 9.93371 13.5626V18.2132C9.93371 18.4361 9.84533 18.623 9.66857 18.7738C9.49181 18.9246 9.27276 19 9.01143 19H5.14286C4.83657 19 4.56952 18.9028 4.34171 18.7085C4.1139 18.5141 4 18.2863 4 18.025Z" fill="white"/>
</svg>
