<svg width="24" height="24" viewBox="0 0 24 24" fill="none" xmlns="http://www.w3.org/2000/svg">
<path d="M14.9476 4.16356C14.1992 3.41321 13.1538 3 12 3C10.84 3 9.79121 3.41071 9.04624 4.15642C8.29318 4.91035 7.92627 5.93498 8.01242 7.04141C8.18318 9.22425 9.97198 11 12 11C14.028 11 15.8137 9.22461 15.9872 7.04212C16.0745 5.9457 15.7053 4.9232 14.9476 4.16356ZM18.769 18.9999H5.23096C5.05375 19.002 4.87827 18.9675 4.71726 18.8987C4.55626 18.83 4.41379 18.7287 4.30021 18.6024C4.05022 18.3249 3.94945 17.946 4.02407 17.5628C4.34867 15.8906 5.36172 14.486 6.95399 13.4999C8.36856 12.6246 10.1604 12.1428 12 12.1428C13.8396 12.1428 15.6314 12.6249 17.046 13.4999C18.6383 14.4856 19.6513 15.8903 19.9759 17.5624C20.0505 17.9456 19.9498 18.3246 19.6998 18.6021C19.5863 18.7284 19.4438 18.8297 19.2828 18.8986C19.1218 18.9674 18.9463 19.002 18.769 18.9999Z" fill="white"/>
</svg>
