<svg width="24" height="24" viewBox="0 0 24 24" fill="none" xmlns="http://www.w3.org/2000/svg">
<path d="M8.62281 15.3788L15.3796 8.62243M6.08827 11.1556L4.39937 12.8444C3.95572 13.288 3.60379 13.8147 3.36369 14.3943C3.12358 14.9739 3 15.5952 3 16.2226C3 16.8499 3.12358 17.4712 3.36369 18.0508C3.60379 18.6304 3.95572 19.1571 4.39937 19.6007C4.84303 20.0443 5.36973 20.3962 5.94939 20.6363C6.52906 20.8764 7.15034 21 7.77776 21C8.40519 21 9.02647 20.8764 9.60613 20.6363C10.1858 20.3962 10.7125 20.0443 11.1562 19.6007L12.8427 17.9119M11.155 6.08806L12.8439 4.39928C13.2875 3.95565 13.8142 3.60375 14.3939 3.36366C14.9735 3.12357 15.5948 3 16.2222 3C16.8497 3 17.4709 3.12357 18.0506 3.36366C18.6303 3.60375 19.157 3.95565 19.6006 4.39928C20.0443 4.84291 20.3962 5.36957 20.6363 5.9492C20.8764 6.52882 21 7.15006 21 7.77745C21 8.40483 20.8764 9.02607 20.6363 9.60569C20.3962 10.1853 20.0443 10.712 19.6006 11.1556L17.9117 12.8444" stroke="white" stroke-width="1.5" stroke-linecap="round" stroke-linejoin="round"/>
</svg>
