<svg width="140" height="28" viewBox="0 0 140 28" fill="none" xmlns="http://www.w3.org/2000/svg">
<path d="M23.9141 2.91699H32.1332C37.1423 2.91699 39.8929 6.06047 39.8929 10.2837C39.8929 12.8378 38.2562 15.5559 35.6696 16.4067L40.5813 25.0838H35.8661L29.5142 13.5912H31.9692C34.3268 13.5912 35.6371 12.1185 35.6371 10.2837C35.6371 8.44902 34.2294 6.91131 32.1332 6.91131H28.1714V25.0838H23.9141V2.91699Z" fill="#0D0D0D"/>
<path d="M41.8242 13.984C41.8242 7.43564 46.6694 2.45898 53.4483 2.45898C60.2272 2.45898 65.0398 7.40315 65.0398 13.984C65.0398 20.5649 60.1607 25.5416 53.4483 25.5416C46.7359 25.5416 41.8242 20.5649 41.8242 13.984ZM53.4483 21.5473C57.5091 21.5473 60.6851 18.4363 60.6851 13.984C60.6851 9.53181 57.5091 6.4533 53.4483 6.4533C49.3874 6.4533 46.179 9.56429 46.179 13.984C46.179 18.4038 49.3225 21.5473 53.4483 21.5473Z" fill="#0D0D0D"/>
<path d="M81.3121 2.91699H95.2597V6.91131H85.5679V11.9545H94.7353V15.7848H85.5679V21.0894H95.385L95.3541 25.0838H81.3105V2.91699H81.3121Z" fill="#0D0D0D"/>
<path d="M97.8092 2.91699H111.757V6.91131H102.065V11.9545H111.232V15.7848H102.065V21.0894H111.882L111.851 25.0838H97.8076V2.91699H97.8092Z" fill="#0D0D0D"/>
<path d="M115.628 2.91699H123.159C130.067 2.91699 134.75 7.43574 134.75 14.0166C134.75 20.5975 130.1 25.0838 123.487 25.0838H122.832L122.77 21.0894H123.126C127.416 21.0894 130.395 18.2414 130.395 13.9841C130.395 9.72683 127.416 6.91131 123.126 6.91131H119.885V25.0838H115.628V2.91699Z" fill="#0D0D0D"/>
<path d="M74.3384 8.8435C71.6868 6.3544 70.737 5.30709 71.1624 2.91699H66.4797C66.0867 6.51838 67.7559 8.51554 70.9984 11.5291C73.7165 14.0182 74.4033 15.3594 74.4033 16.9636C74.4033 20.4676 70.573 21.0894 69.1312 21.0894H65.9521V24.9817L69.1312 25.0838C75.1227 25.0838 78.888 21.9403 78.888 16.8662C78.888 14.1156 77.4478 11.7905 74.3368 8.8435H74.3384Z" fill="#0D0D0D"/>
<path d="M13.2062 2.91699H5.25V25.0838H9.50731V6.91131H13.2077C15.8933 6.91131 17.4635 8.54802 17.4635 10.7416C17.4635 12.9353 15.8917 14.5395 13.2077 14.5395H12.3213V18.407L12.3569 18.5338H13.2077C18.2834 18.5338 21.7208 15.2588 21.7208 10.7416C21.7208 6.22445 18.2818 2.91699 13.2062 2.91699Z" fill="#0D0D0D"/>
</svg>
