<svg width="160" height="29" viewBox="0 0 160 29" fill="none" xmlns="http://www.w3.org/2000/svg">
<path d="M23.0601 0.565613H33.215C39.4039 0.565613 42.8023 4.44945 42.8023 9.6674C42.8023 12.823 40.7801 16.1812 37.5843 17.2325L43.6528 27.9532H37.8271L29.9791 13.7538H33.0124C35.9253 13.7538 37.5442 11.9342 37.5442 9.6674C37.5442 7.40056 35.8049 5.50069 33.215 5.50069H28.3201V27.9532H23.0601V0.565613Z" fill="#000"/>
<path d="M45.188 14.2395C45.188 6.14877 51.1743 0 59.5498 0C67.9253 0 73.8714 6.10863 73.8714 14.2395C73.8714 22.3703 67.8431 28.5191 59.5498 28.5191C51.2565 28.5191 45.188 22.3703 45.188 14.2395ZM59.5498 23.584C64.567 23.584 68.491 19.7403 68.491 14.2395C68.491 8.73864 64.567 4.93507 59.5498 4.93507C54.5325 4.93507 50.5684 8.77877 50.5684 14.2395C50.5684 19.7002 54.4522 23.584 59.5498 23.584Z" fill="#000"/>
<path d="M93.9765 0.565613H111.209V5.50069H99.2346V11.7316H110.561V16.4641H99.2346V23.0181H111.364L111.326 27.9532H93.9746V0.565613H93.9765Z" fill="#000"/>
<path d="M114.359 0.565674H131.592V5.50075H119.617V11.7317H130.944V16.4642H119.617V23.0182H131.747L131.709 27.9532H114.357V0.565674H114.359Z" fill="#000"/>
<path d="M136.374 0.565613H145.678C154.214 0.565613 160 6.14863 160 14.2795C160 22.4103 154.255 27.9532 146.084 27.9532H145.275L145.199 23.0181H145.638C150.938 23.0181 154.62 19.4993 154.62 14.2393C154.62 8.97932 150.938 5.50069 145.638 5.50069H141.634V27.9532H136.374V0.565613Z" fill="#000"/>
<path d="M85.3604 7.88801C82.0844 4.81267 80.9108 3.51869 81.4364 0.565674H75.6508C75.1653 5.01527 77.2276 7.4828 81.2338 11.2061C84.592 14.2814 85.4407 15.9386 85.4407 17.9206C85.4407 22.2498 80.7082 23.0182 78.9268 23.0182H74.999V27.8271L78.9268 27.9532C86.3294 27.9532 90.9816 24.0694 90.9816 17.8002C90.9816 14.4018 89.2022 11.5291 85.3585 7.88801H85.3604Z" fill="#000"/>
<path d="M9.83001 0.565613H0V27.9532H5.26V5.50069H9.83192C13.15 5.50069 15.09 7.52288 15.09 10.2332C15.09 12.9434 13.1481 14.9255 9.83192 14.9255H8.73672V19.7038L8.78069 19.8606H9.83192C16.103 19.8606 20.35 15.8143 20.35 10.2332C20.35 4.65205 16.1011 0.565613 9.83001 0.565613Z" fill="#000"/>
</svg>
