<svg width="591" height="106" viewBox="0 0 591 106" fill="none" xmlns="http://www.w3.org/2000/svg">
<path d="M85.1777 2.08936H122.688C145.548 2.08936 158.101 16.4353 158.101 35.7091C158.101 47.3652 150.631 59.7696 138.827 63.6526L161.242 103.252H139.723L110.735 50.8034H121.939C132.699 50.8034 138.678 44.0823 138.678 35.7091C138.678 27.3359 132.254 20.3183 122.688 20.3183H104.607V103.252H85.1777V2.08936Z" fill="white"/>
<path d="M166.913 52.597C166.913 22.712 189.025 0 219.962 0C250.899 0 272.863 22.5638 272.863 52.597C272.863 82.6303 250.595 105.342 219.962 105.342C189.329 105.342 166.913 82.6303 166.913 52.597ZM219.962 87.1134C238.494 87.1134 252.989 72.9157 252.989 52.597C252.989 32.2783 238.494 18.2289 219.962 18.2289C201.429 18.2289 186.787 32.4266 186.787 52.597C186.787 72.7675 201.133 87.1134 219.962 87.1134Z" fill="white"/>
<path d="M347.125 2.08936H410.778V20.3183H366.547V43.3339H408.385V60.8145H366.547V85.0232H411.35L411.209 103.252H347.118V2.08936H347.125Z" fill="white"/>
<path d="M422.415 2.08936H486.068V20.3183H441.837V43.3339H483.675V60.8145H441.837V85.0232H486.64L486.499 103.252H422.408V2.08936H422.415Z" fill="white"/>
<path d="M503.731 2.08936H538.1C569.63 2.08936 591 22.7116 591 52.7449C591 82.7781 569.778 103.252 539.596 103.252H536.61L536.327 85.0232H537.951C557.529 85.0232 571.126 72.0258 571.126 52.5966C571.126 33.1675 557.529 20.3183 537.951 20.3183H523.161V103.252H503.731V2.08936Z" fill="white"/>
<path d="M315.3 29.1362C303.199 17.7767 298.864 12.9971 300.805 2.08936H279.435C277.642 18.525 285.259 27.6395 300.057 41.3924C312.461 52.7519 315.596 58.873 315.596 66.1942C315.596 82.1851 298.116 85.0232 291.536 85.0232H277.027V102.786L291.536 103.252C318.879 103.252 336.063 88.9062 336.063 65.7494C336.063 53.1967 329.49 42.5855 315.293 29.1362H315.3Z" fill="white"/>
<path d="M36.3096 2.08936H0V103.252H19.4291V20.3183H36.3167C48.5728 20.3183 55.7387 27.7878 55.7387 37.7989C55.7387 47.8099 48.5658 55.1312 36.3167 55.1312H32.2713V72.7812L32.4337 73.3601H36.3167C59.4805 73.3601 75.1679 58.4141 75.1679 37.7989C75.1679 17.1836 59.4735 2.08936 36.3096 2.08936Z" fill="white"/>
</svg>
