<svg width="24" height="24" viewBox="0 0 24 24" fill="none" xmlns="http://www.w3.org/2000/svg">
<path d="M2.65087 5.58579L10.6111 12C11.0052 12.284 11.4951 12.4388 12 12.4388C12.5049 12.4388 12.9948 12.284 13.3889 12L21.3491 5.58579M2.65087 5.58579C3.06762 5.21071 3.63285 5 4.22222 5H19.7778C20.3671 5 20.9324 5.21071 21.3491 5.58579M2.65087 5.58579C2.23413 5.96086 2 6.46957 2 7V17C2 17.5304 2.23413 18.0391 2.65087 18.4142C3.06762 18.7893 3.63285 19 4.22222 19H19.7778C20.3671 19 20.9324 18.7893 21.3491 18.4142C21.7659 18.0391 22 17.5304 22 17V7C22 6.46957 21.7659 5.96086 21.3491 5.58579" stroke="white" stroke-width="1.4" stroke-linecap="round" stroke-linejoin="round"/>
</svg>
