<svg width="24" height="24" viewBox="0 0 24 24" fill="none" xmlns="http://www.w3.org/2000/svg">
<path fill-rule="evenodd" clip-rule="evenodd" d="M4 6.8V8H2.8C2.32261 8 1.86477 8.18964 1.52721 8.52721C1.18964 8.86477 1 9.32261 1 9.8V18.2C1 18.6774 1.18964 19.1352 1.52721 19.4728C1.86477 19.8104 2.32261 20 2.8 20H19.2C19.4364 20 19.6704 19.9534 19.8888 19.863C20.1072 19.7725 20.3056 19.6399 20.4728 19.4728C20.6399 19.3056 20.7725 19.1072 20.863 18.8888C20.9534 18.6704 21 18.4364 21 18.2V17H22.2C23.192 17 24 16.192 24 15.2V6.8C24 5.808 23.192 5 22.2 5H5.8C4.808 5 4 5.808 4 6.8ZM6 7V8H19.2C19.4364 8 19.6704 8.04656 19.8888 8.13702C20.1072 8.22748 20.3056 8.36006 20.4728 8.52721C20.6399 8.69435 20.7725 8.89278 20.863 9.11117C20.9534 9.32956 21 9.56362 21 9.8V15H22V7H6ZM9 14C9 13.4696 9.21071 12.9609 9.58579 12.5858C9.96086 12.2107 10.4696 12 11 12C11.5304 12 12.0391 12.2107 12.4142 12.5858C12.7893 12.9609 13 13.4696 13 14C13 14.5304 12.7893 15.0391 12.4142 15.4142C12.0391 15.7893 11.5304 16 11 16C10.4696 16 9.96086 15.7893 9.58579 15.4142C9.21071 15.0391 9 14.5304 9 14Z" fill="white"/>
</svg>
