<svg width="24" height="24" viewBox="0 0 24 24" fill="none" xmlns="http://www.w3.org/2000/svg">
<path d="M7.5 6.375V5.8125C7.5 4.25859 10.5234 3 14.25 3C17.9766 3 21 4.25859 21 5.8125V6.375C21 7.45078 19.548 8.38594 17.4141 8.86055C17.3297 8.76211 17.2418 8.66719 17.1539 8.5793C16.609 8.04141 15.9059 7.63359 15.1711 7.33125C13.698 6.71602 11.7785 6.37852 9.75 6.37852C8.98008 6.37852 8.22773 6.42773 7.50703 6.52266C7.5 6.47695 7.5 6.42773 7.5 6.37852V6.375ZM18.1875 15.4102V13.7859C18.7184 13.6488 19.2176 13.4871 19.6711 13.2973C20.1352 13.1039 20.5887 12.8684 21 12.5836V13.125C21 14.0672 19.8926 14.9004 18.1875 15.4102ZM18.1875 12.0352V10.875C18.1875 10.7168 18.1734 10.5656 18.1523 10.418C18.6973 10.2809 19.207 10.1156 19.6711 9.91875C20.1352 9.72187 20.5887 9.48984 21 9.20508V9.74648C21 10.6887 19.8926 11.5219 18.1875 12.0316V12.0352ZM3 11.4375V10.875C3 9.32109 6.02344 8.0625 9.75 8.0625C13.4766 8.0625 16.5 9.32109 16.5 10.875V11.4375C16.5 12.9914 13.4766 14.25 9.75 14.25C6.02344 14.25 3 12.9914 3 11.4375ZM16.5 14.8125C16.5 16.3664 13.4766 17.625 9.75 17.625C6.02344 17.625 3 16.3664 3 14.8125V14.2711C3.40781 14.5559 3.86133 14.7879 4.32891 14.9848C5.80195 15.6 7.72148 15.9375 9.75 15.9375C11.7785 15.9375 13.698 15.5965 15.1711 14.9848C15.6352 14.7914 16.0887 14.5559 16.5 14.2711V14.8125ZM16.5 17.6461V18.1875C16.5 19.7414 13.4766 21 9.75 21C6.02344 21 3 19.7414 3 18.1875V17.6461C3.40781 17.9309 3.86133 18.1629 4.32891 18.3598C5.80195 18.975 7.72148 19.3125 9.75 19.3125C11.7785 19.3125 13.698 18.9715 15.1711 18.3598C15.6352 18.1664 16.0887 17.9309 16.5 17.6461Z" fill="#6879FF"/>
</svg>
