<svg width="28" height="28" viewBox="0 0 28 28" fill="none" xmlns="http://www.w3.org/2000/svg">
<path d="M14.0001 2.33203C12.7624 2.33203 11.5754 2.8237 10.7003 3.69887C9.82508 4.57404 9.33342 5.76102 9.33342 6.9987C9.33342 8.23638 9.82508 9.42336 10.7003 10.2985C11.5754 11.1737 12.7624 11.6654 14.0001 11.6654C15.2378 11.6654 16.4247 11.1737 17.2999 10.2985C18.1751 9.42336 18.6667 8.23638 18.6667 6.9987C18.6667 5.76102 18.1751 4.57404 17.2999 3.69887C16.4247 2.8237 15.2378 2.33203 14.0001 2.33203ZM19.8334 13.9987H8.16675C7.23849 13.9987 6.34825 14.3674 5.69187 15.0238C5.0355 15.6802 4.66675 16.5704 4.66675 17.4987C4.66675 20.1027 5.73775 22.1887 7.49475 23.6004C9.22375 24.9887 11.5431 25.6654 14.0001 25.6654C16.4571 25.6654 18.7764 24.9887 20.5054 23.6004C22.2601 22.1887 23.3334 20.1027 23.3334 17.4987C23.3334 16.5704 22.9647 15.6802 22.3083 15.0238C21.6519 14.3674 20.7617 13.9987 19.8334 13.9987Z" fill="#5F6566"/>
</svg>
