<svg width="24" height="24" viewBox="0 0 24 24" fill="none" xmlns="http://www.w3.org/2000/svg">
<path d="M7 12.5H17C17.663 12.5 18.2987 12.7636 18.7676 13.2324C19.2364 13.7013 19.5 14.337 19.5 15C19.5 17.0819 18.6474 18.7257 17.2627 19.8398C15.8888 20.943 14.0197 21.5 12 21.5C9.9803 21.5 8.1112 20.943 6.7373 19.8398C5.35095 18.7259 4.5 17.0823 4.5 15C4.5 14.337 4.76358 13.7013 5.23242 13.2324C5.70126 12.7636 6.33696 12.5 7 12.5ZM12 2.5C12.9283 2.5 13.8182 2.86901 14.4746 3.52539C15.131 4.18177 15.5 5.07174 15.5 6C15.5 6.92826 15.131 7.81823 14.4746 8.47461C13.8182 9.13099 12.9283 9.5 12 9.5C11.0717 9.5 10.1818 9.13099 9.52539 8.47461C8.86901 7.81823 8.5 6.92826 8.5 6C8.5 5.07174 8.86901 4.18177 9.52539 3.52539C10.1818 2.86901 11.0717 2.5 12 2.5Z" stroke="white"/>
</svg>
