<svg width="24" height="24" viewBox="0 0 24 24" fill="none" xmlns="http://www.w3.org/2000/svg">
<path d="M19.257 14.9129C18.3578 15.4594 17.3251 15.7469 16.2729 15.7435C15.3914 15.7365 14.5198 15.5562 13.7079 15.2129C13.0821 16.0963 12.7472 17.1528 12.7498 18.2354V21.0001C12.75 21.1029 12.7291 21.2046 12.6883 21.299C12.6476 21.3934 12.5878 21.4784 12.5129 21.5488C12.4379 21.6191 12.3492 21.6733 12.2524 21.7079C12.1556 21.7425 12.0527 21.7569 11.9501 21.7501C11.7573 21.7333 11.578 21.6442 11.4481 21.5008C11.3183 21.3574 11.2474 21.1701 11.2498 20.9766V19.8104L7.62917 16.1897C7.09095 16.3905 6.52173 16.4956 5.94729 16.5001C5.15647 16.5021 4.38044 16.2857 3.70479 15.8747C1.66198 14.6335 0.562291 11.7769 0.775103 8.23037C0.785818 8.04689 0.863535 7.87373 0.993497 7.74376C1.12346 7.6138 1.29662 7.53608 1.4801 7.52537C5.02667 7.31631 7.88323 8.41224 9.12073 10.4551C9.60693 11.2558 9.81919 12.193 9.72542 13.1251C9.71959 13.1973 9.69296 13.2663 9.64876 13.3237C9.60456 13.3811 9.54468 13.4244 9.47636 13.4485C9.40803 13.4726 9.33419 13.4764 9.26376 13.4594C9.19333 13.4425 9.12932 13.4054 9.07948 13.3529L7.27948 11.4685C7.13768 11.3338 6.94887 11.2598 6.7533 11.2623C6.55773 11.2648 6.37087 11.3436 6.23257 11.4819C6.09427 11.6202 6.01546 11.8071 6.01296 12.0026C6.01046 12.1982 6.08445 12.387 6.21917 12.5288L11.2704 17.7085C11.276 17.6354 11.2826 17.5622 11.2901 17.4901C11.4541 16.0995 12.0677 14.8006 13.0376 13.7907L17.7804 8.77881C17.9211 8.6382 18.0003 8.44745 18.0003 8.24851C18.0004 8.04958 17.9215 7.85876 17.7809 7.71803C17.6403 7.5773 17.4495 7.49819 17.2506 7.4981C17.0517 7.49801 16.8608 7.57695 16.7201 7.71756L12.1264 12.5757C12.0804 12.6244 12.0222 12.6599 11.9578 12.6785C11.8935 12.6971 11.8253 12.6981 11.7605 12.6815C11.6956 12.6648 11.6363 12.6311 11.5889 12.5838C11.5415 12.5365 11.5076 12.4774 11.4907 12.4126C11.0464 10.7738 11.2423 9.14256 12.0907 7.74193C13.7651 4.97818 17.6614 3.49881 22.5139 3.78381C22.6973 3.79452 22.8705 3.87224 23.0005 4.0022C23.1304 4.13216 23.2081 4.30533 23.2189 4.48881C23.5001 9.34225 22.0207 13.2385 19.257 14.9129Z" fill="white"/>
</svg>
