<svg width="24" height="24" viewBox="0 0 24 24" fill="none" xmlns="http://www.w3.org/2000/svg">
<path d="M6.75 21C6.26875 21 5.85692 20.8239 5.5145 20.4717C5.17208 20.1195 5.00058 19.6956 5 19.2V4.8C5 4.305 5.1715 3.8814 5.5145 3.5292C5.8575 3.177 6.26933 3.0006 6.75 3H13.0281C13.2615 3 13.484 3.045 13.6957 3.135C13.9075 3.225 14.0933 3.3525 14.2531 3.5175L18.4969 7.8825C18.6573 8.0475 18.7812 8.2389 18.8688 8.4567C18.9563 8.6745 19 8.9031 19 9.1425V19.2C19 19.695 18.8288 20.1189 18.4864 20.4717C18.144 20.8245 17.7318 21.0006 17.25 21H6.75ZM12.875 8.4C12.875 8.655 12.959 8.8689 13.127 9.0417C13.295 9.2145 13.5027 9.3006 13.75 9.3H17.25L12.875 4.8V8.4ZM11.125 14.7V16.5C11.125 16.755 11.209 16.9689 11.377 17.1417C11.545 17.3145 11.7527 17.4006 12 17.4C12.2473 17.3994 12.4553 17.313 12.6239 17.1408C12.7925 16.9686 12.8762 16.755 12.875 16.5V14.7H14.625C14.8729 14.7 15.0809 14.6136 15.2489 14.4408C15.4169 14.268 15.5006 14.0544 15.5 13.8C15.4994 13.5456 15.4154 13.332 15.248 13.1592C15.0806 12.9864 14.8729 12.9 14.625 12.9H12.875V11.1C12.875 10.845 12.791 10.6314 12.623 10.4592C12.455 10.287 12.2473 10.2006 12 10.2C11.7527 10.1994 11.545 10.2858 11.377 10.4592C11.209 10.6326 11.125 10.8462 11.125 11.1V12.9H9.375C9.12708 12.9 8.91942 12.9864 8.752 13.1592C8.58458 13.332 8.50058 13.5456 8.5 13.8C8.49942 14.0544 8.58342 14.2683 8.752 14.4417C8.92058 14.6151 9.12825 14.7012 9.375 14.7H11.125Z" fill="white"/>
</svg>
