<svg width="92" height="92" viewBox="0 0 92 92" fill="none" xmlns="http://www.w3.org/2000/svg">
<rect width="92" height="92" rx="46" fill="#555352"/>
<path d="M41.3421 55.6944C41.3421 55.6944 39.9163 53.07 37.6883 50.7839C35.4602 48.5027 33.179 47.4152 33.179 47.4152C33.179 47.4152 33.179 46.1586 33.121 45.4191C33.063 44.6748 32.7488 43.5391 32.7488 43.5391C32.7488 43.5391 33.5221 39.9964 33.2901 36.0574C33.063 32.1184 31.5792 30.8618 29.9215 30.6346C28.1042 30.3833 27.2971 31.8333 27.2971 31.8333C27.2971 31.8333 25.6248 29.3152 22.6718 30.4075C20.0474 31.3789 20.3326 34.3465 20.3326 34.3465C20.3326 34.3465 18.1625 33.8342 16.8527 35.2019C15.7653 36.3377 15.4656 38.6141 17.481 42.1665C20.3906 47.3041 24.2715 49.4741 24.2715 49.4741C24.2715 49.4741 24.6437 53.2101 27.0699 57.9224C29.5928 62.828 33.5221 65.6264 35.2911 65.6844C37.4128 65.7521 41.3421 55.6944 41.3421 55.6944Z" fill="#FF9B6C"/>
<path d="M66.6477 31.7856L60.8093 30.5435L55.3962 59.054L35.3243 66.8788C35.3243 66.8788 34.8748 68.6477 37.2672 69.6434C38.9781 70.3587 40.2734 69.6965 40.2734 69.6965C40.2734 69.6965 40.9742 71.0981 43.1105 71.2818C45.2467 71.4655 45.9185 70.7936 45.9185 70.7936C45.9185 70.7936 46.774 71.9536 48.6927 71.7989C50.6163 71.6443 51.0706 70.6632 51.5587 70.6148C52.0469 70.5665 53.5113 71.8618 56.1357 70.8855C58.7601 69.9092 59.1854 68.0194 59.1564 68.1403C59.1274 68.2611 62.2351 68.3819 64.2505 66.0959C66.0871 64.0128 65.6908 63.1573 66.2176 62.3067C66.7396 61.4561 68.2475 61.7896 69.9536 59.1458C71.7225 56.4006 71.0507 55.7917 71.3552 54.999C71.6597 54.2064 73.1241 53.3509 73.5204 51.4322C73.9167 49.5086 72.6988 48.4357 72.8776 47.0727C73.0274 45.9418 74.1487 44.7432 74.1487 42.8824C74.1487 40.4948 71.3842 39.2044 71.3842 39.2044C71.3842 39.2044 71.5968 36.5655 70.925 35.0866C69.7361 32.4525 66.6477 31.7856 66.6477 31.7856Z" fill="#EE9E45"/>
<path d="M23.7106 34.6082C22.5506 35.0576 23.0774 36.8314 23.6719 38.0203C24.2664 39.2093 25.4747 41.9883 25.9338 42.8873C26.2141 43.4334 26.7216 44.2116 27.5239 43.9602C28.3262 43.7089 28.099 42.636 27.8864 42.0028C27.6737 41.3697 26.5041 38.3055 26.1803 37.3244C25.8565 36.3529 25.146 34.0523 23.7106 34.6082ZM29.4426 35.164C28.331 35.222 28.0265 36.2176 28.2537 38.2717C28.4809 40.3257 29.0222 43.1966 29.0802 43.7717C29.1382 44.3469 29.3846 45.2072 30.1724 45.1347C30.9602 45.0574 30.8442 43.9651 30.8442 43.4479C30.8442 42.9308 30.7669 38.7308 30.7089 37.7352C30.6461 36.7347 30.5688 35.106 29.4426 35.164ZM20.2211 38.8275C19.5154 39.3011 19.5686 40.4562 20.4337 41.6452C21.1345 42.607 23.9812 46.0143 24.4404 46.5315C24.8995 47.0486 25.61 47.2806 26.0691 46.7828C26.4558 46.3623 26.1561 45.6373 25.9145 45.3087C25.5713 44.8302 23.2514 41.2054 22.8454 40.5529C22.4443 39.9004 21.3907 38.0397 20.2211 38.8275Z" fill="#C2411C"/>
<path d="M45.3085 54.4423C45.3085 54.4423 44.25 52.7217 42.0461 52.9102C39.8519 53.0987 39.4991 54.7662 39.4991 54.7662C39.4991 54.7662 37.3822 53.9542 35.9999 55.7859C34.9028 57.2359 35.5504 59.3673 35.5504 59.3673C35.5504 59.3673 33.2064 60.0294 33.2354 63.1371C33.2644 66.269 35.1251 66.9601 35.6761 67.1534C36.2271 67.3468 37.1309 67.2259 37.1309 67.2259C37.1309 67.2259 38.2038 68.6565 39.9147 68.5502C41.6257 68.4439 43.0901 67.6947 43.9456 67.7672C44.9557 67.8494 45.7821 68.7097 47.0049 69.0383C48.9817 69.57 50.5089 68.5309 51.7559 67.5304C53.0028 66.53 53.4233 65.5295 54.3609 65.0704C55.4387 64.5435 56.966 64.8915 58.0679 64.1424C59.1747 63.3933 58.8896 62.504 59.8513 61.8612C60.8131 61.2184 61.4559 61.6098 62.9542 60.0439C64.4525 58.4732 63.8097 56.9072 64.38 55.9068C64.9503 54.9063 65.6269 55.6941 66.6274 53.7657C67.6278 51.8373 66.7337 49.8799 67.1252 48.5943C67.5167 47.3087 68.7298 47.0235 68.9086 45.0999C69.0874 43.1763 67.5408 41.5041 67.6133 40.291C67.6858 39.0779 68.8844 38.6042 68.9569 36.1103C69.0294 33.6164 68.0145 32.3018 68.0145 32.3018C68.0145 32.3018 68.4785 30.3782 66.9077 28.3822C65.3369 26.3861 63.307 26.4199 63.307 26.4199C63.307 26.4199 63.6647 24.5302 61.4511 23.2107C59.2375 21.8913 57.1013 22.7806 57.1013 22.7806C57.1013 22.7806 55.9607 21.35 53.288 21.321C50.3639 21.2872 49.2958 22.5341 49.2958 22.5341C49.2958 22.5341 47.5849 21.2485 44.946 22.4278C42.7179 23.4234 42.5198 24.9942 42.5198 24.9942C42.5198 24.9942 40.4367 24.796 39.0254 26.4924C37.5997 28.2033 38.17 30.3058 38.17 30.3058C38.17 30.3058 36.3866 31.4802 36.4591 33.8339C36.5412 36.5115 38.0975 37.3283 38.0975 37.3283C38.0975 37.3283 36.6379 39.9672 39.7359 43.1763C42.8339 46.3855 44.7624 45.2062 44.7624 45.2062C44.7624 45.2062 45.8498 46.5015 47.5607 46.8592C49.2717 47.2168 50.7554 46.5595 50.7554 46.5595C50.7554 46.5595 51.2194 47.415 51.8622 47.9515C52.505 48.4879 53.1816 48.9519 53.1816 48.9519C53.1816 48.9519 52.6113 49.5222 52.36 50.4502C52.1087 51.3781 52.3262 52.5913 52.3262 52.5913C52.3262 52.5913 50.6878 52.4463 48.653 52.9102C46.4104 53.4226 45.3085 54.4423 45.3085 54.4423Z" fill="#FFD664"/>
<path d="M64.7288 32.4101C63.941 32.4488 64.0328 33.4347 64.0183 34.1307C64.0038 34.8267 63.7138 35.9431 64.7288 35.9721C65.676 35.9963 65.7099 34.7107 65.7389 34.2225C65.792 33.4347 65.7292 32.3569 64.7288 32.4101ZM65.7969 43.3861C65.0574 43.4441 64.9849 44.3334 64.9366 45.1164C64.8931 45.8703 64.4098 47.0109 65.2846 47.2864C66.1594 47.5571 66.6523 46.4745 66.7297 45.4208C66.8022 44.3624 66.7877 43.3039 65.7969 43.3861ZM45.58 65.7248C45.4011 66.4932 45.7443 67.2085 47.373 67.426C48.9535 67.6387 49.3739 67.0249 49.4368 66.4014C49.5286 65.4541 48.5765 65.0916 47.6147 64.9708C46.8076 64.8693 45.7781 64.8693 45.58 65.7248ZM37.0447 64.8645C36.6725 65.7924 37.4651 66.3096 38.6686 66.6721C39.872 67.0345 40.7323 66.8074 40.974 66.1017C41.2108 65.4058 40.4617 64.9563 39.3017 64.6276C38.1418 64.2942 37.3443 64.1153 37.0447 64.8645Z" fill="#E17F13"/>
</svg>
