<svg width="92" height="92" viewBox="0 0 92 92" fill="none" xmlns="http://www.w3.org/2000/svg">
<rect width="92" height="92" rx="46" fill="#FF6A72"/>
<path d="M22.6076 69.1109C21.4662 69.2988 20.441 68.4164 20.457 67.2598C20.5304 61.9794 20.7777 55.067 20.1258 44.5671C20.1053 44.2371 20.1598 43.8956 20.386 43.6545C22.6241 41.2696 33.5461 39.1044 34.5026 36.7934C37.2173 30.2352 31.9523 25.852 37.3144 21.3819C40.9187 18.3774 45.842 17.8117 48.6029 20.9197C49.4711 21.8971 51.0591 22.3258 52.2838 21.8684C55.8976 20.519 60.545 21.6582 62.0964 24.6824C62.6429 25.7477 63.7404 26.671 64.9374 26.6434C71.5156 26.492 74.4468 32.5212 69.5753 37.4438C69.1954 37.8276 68.9499 38.3364 68.9023 38.8744C68.5762 42.5659 66.8456 55.0205 66.8456 58.3708C66.8456 62.0697 66.4069 61.6851 55.86 63.5345C47.202 65.0527 28.8893 68.0765 22.6076 69.1109Z" fill="#F0F0F0"/>
<path d="M20.4395 67.5935V47.1909C20.4395 47.1909 64.502 35.2894 64.502 43.0118V60.7926L20.4395 67.5935Z" fill="#FFAC33"/>
<path d="M20.4395 65.7185V49.9239C20.4395 49.9239 46.543 42.883 62.627 43.231V59.0256L20.4395 65.7185Z" fill="#FFD983"/>
<path d="M20.4395 59.156V55.406L64.502 47.906V51.656L20.4395 59.156Z" fill="#FFAC33"/>
<path d="M21.377 43.2175L39.5848 27.28C43.7743 27.28 56.3427 29.0995 62.627 36.3773L21.377 43.2175Z" fill="#F0F0F0"/>
<path d="M67.0711 36.655C69.1966 34.6895 69.1966 26.8276 60.6947 28.7931C60.6947 26.8276 56.4437 20.9311 50.0673 24.8621C50.0673 22.8966 39.4399 20.9311 37.3145 24.8621C58.5692 30.7586 67.0711 36.655 67.0711 36.655Z" fill="white"/>
<path d="M44.1522 38.6107C40.6279 38.2257 35.6598 36.6059 36.6212 32.1314C37.5825 27.657 41.3778 23.0956 43.8311 21.8719C45.996 20.7927 49.1067 22.412 51.2489 28.4478C52.5178 32.023 54.4623 37.5524 46.7958 38.5348C45.9152 38.5348 44.1522 38.6107 44.1522 38.6107Z" fill="#DD2E44"/>
<path d="M45.6096 28.3235C45.4604 28.3235 45.3132 28.2901 45.1797 28.2258C45.0462 28.1616 44.9301 28.0683 44.8406 27.9533L43.8792 26.7185C43.7263 26.5221 43.6606 26.2753 43.6966 26.0323C43.7327 25.7892 43.8675 25.57 44.0715 25.4227C44.2755 25.2754 44.5319 25.2121 44.7843 25.2469C45.0367 25.2816 45.2644 25.4114 45.4174 25.6078L46.3787 26.8426C46.4858 26.9801 46.551 27.1436 46.5671 27.3148C46.5831 27.486 46.5493 27.6581 46.4695 27.8119C46.3896 27.9656 46.2669 28.0949 46.115 28.1853C45.9632 28.2757 45.7882 28.3235 45.6096 28.3235ZM40.9645 34.8028C40.8176 34.8029 40.6726 34.7705 40.5408 34.7082C40.4089 34.6459 40.2936 34.5553 40.2037 34.4434C40.1139 34.3315 40.0519 34.2013 40.0224 34.0627C39.993 33.9241 39.9969 33.7809 40.034 33.644L40.5146 31.8705C40.5851 31.6396 40.7463 31.4442 40.9639 31.3258C41.1815 31.2074 41.4384 31.1752 41.6802 31.2361C41.9221 31.297 42.1297 31.4462 42.2592 31.6521C42.3887 31.858 42.4298 32.1043 42.3738 32.3389L41.8932 34.1123C41.8392 34.31 41.7189 34.4849 41.5509 34.6098C41.383 34.7347 41.1768 34.8026 40.9645 34.8028ZM49.3742 34.9565C49.1972 34.9568 49.0235 34.91 48.8724 34.8214L47.4304 33.9735C47.2254 33.8397 47.0817 33.6351 47.0293 33.402C46.9769 33.169 47.0197 32.9254 47.1488 32.722C47.278 32.5185 47.4836 32.3708 47.7229 32.3094C47.9622 32.2481 48.2169 32.2779 48.434 32.3925L49.876 33.2404C50.0538 33.3464 50.1909 33.5051 50.2667 33.6927C50.3426 33.8804 50.3529 34.0866 50.2962 34.2804C50.2396 34.4742 50.119 34.645 49.9526 34.7669C49.7863 34.8889 49.5833 34.9554 49.3742 34.9565Z" fill="#F4ABBA"/>
</svg>
