<svg width="92" height="92" viewBox="0 0 92 92" fill="none" xmlns="http://www.w3.org/2000/svg">
<rect width="92" height="92" rx="46" fill="#78604C"/>
<path d="M26.671 58.9483C28.9483 59.9006 37.4656 54.4598 39.1177 53.1928C42.7366 50.4144 43.4819 48.841 43.4819 48.841C43.4819 48.841 41.5814 55.3459 41.9789 59.5487C42.3764 63.7514 43.1797 66.654 45.0802 67.7554C46.9808 68.8568 52.5872 68.157 60.7939 63.151C69.0006 58.145 71.8038 46.1372 70.102 40.2326C68.0524 33.1108 61.4937 29.4256 61.4937 29.4256C61.4937 29.4256 58.3965 21.7199 53.4898 20.6185C47.9165 19.368 40.3806 26.6224 35.9791 28.9246C31.5776 31.2268 26.2735 33.7277 25.1721 34.8291C24.0707 35.9305 20.4642 41.1353 21.2675 47.338C22.0708 53.5406 24.6379 58.0953 26.671 58.9483Z" fill="#F7C876"/>
<path d="M45.5244 65.7218C45.8557 68.9308 55.0106 64.9558 58.733 62.4921C64.1407 58.9105 66.0412 55.2543 67.5857 51.6727C69.5607 47.0973 69.5525 43.1016 68.9893 43.1016C68.4262 43.1016 68.5463 48.915 62.737 54.9727C56.2031 61.7882 45.1021 61.6474 45.5244 65.7218Z" fill="#CF701E"/>
<path d="M52.9561 62.9414C52.9561 62.9414 56.6453 61.1402 58.3554 60.163C60.1897 59.1154 62.8107 57.4385 62.8107 57.4385L69.9409 62.0511C69.9409 62.0511 64.6989 65.67 63.6513 66.4029C62.6037 67.1358 60.5044 68.7093 60.2436 69.2351C59.9827 69.761 59.7715 71.645 59.403 71.5414C59.0345 71.4379 58.3554 70.8086 56.31 67.9764C54.2645 65.1442 52.9561 62.9414 52.9561 62.9414Z" fill="#E0E0E0"/>
<path d="M51.6356 26.3839C49.176 25.9616 48.8241 30.7398 46.7869 36.7106C44.7497 42.6814 42.9982 48.6439 43.4413 48.9379C43.7974 49.1739 46.9981 43.2984 49.3872 37.046C51.4741 31.597 53.2297 26.6572 51.6356 26.3839Z" fill="#CF701E"/>
<path d="M61.4983 29.4288C61.4983 29.4288 62.9351 31.8884 63.5645 32.9732C64.1938 34.0581 66.289 37.0103 66.5995 37.5486C66.9101 38.091 69.411 37.412 67.142 34.4348C64.5375 31.0271 61.4983 29.4288 61.4983 29.4288Z" fill="url(#paint0_radial_1129_8721)"/>
<defs>
<radialGradient id="paint0_radial_1129_8721" cx="0" cy="0" r="1" gradientUnits="userSpaceOnUse" gradientTransform="translate(63.4456 32.815) scale(5.71944 5.71945)">
<stop stop-color="#F3B142"/>
<stop offset="0.282" stop-color="#F4B54C" stop-opacity="0.718"/>
<stop offset="0.756" stop-color="#F6C166" stop-opacity="0.244"/>
<stop offset="1" stop-color="#F7C876" stop-opacity="0"/>
</radialGradient>
</defs>
</svg>
