<svg width="92" height="92" viewBox="0 0 92 92" fill="none" xmlns="http://www.w3.org/2000/svg">
<rect width="92" height="92" rx="46" fill="#FFBD95"/>
<path d="M75.12 47.5905C73.9467 47.0591 73.9467 46.1024 74.0533 45.3583L76.8267 35.685L67.5467 37.5984C67.2267 37.5984 66.3733 37.5984 65.84 35.7913L64.9867 32.4961L58.5867 39.937C58.5867 39.937 54.4267 44.5079 55.7067 37.5984L58.48 22.8228L53.36 25.374C53.04 25.4803 52.08 25.5866 50.6933 23.0354L46 14L41.3067 22.9291C39.92 25.4803 38.96 25.374 38.64 25.2677L33.52 22.7165L36.2933 37.4921C37.5733 44.4016 33.4133 39.8307 33.4133 39.8307L27.0133 32.3898L26.16 35.685C25.7333 37.4921 24.7733 37.5984 24.4533 37.4921L15.1733 35.5787L17.9467 45.252C18.0533 45.9961 18.0533 46.9528 16.88 47.4843L14 48.8661C14 48.8661 24.6667 57.3701 28.08 60.2402C28.72 60.7717 30.4267 62.4724 29.7867 64.1732L28.5067 68L43.0133 65.7677C43.76 65.6614 47.92 65.6614 48.6667 65.7677L63.1733 68L61.8933 64.1732C61.36 62.3661 62.96 60.7717 63.6 60.2402C67.3333 57.3701 78 48.8661 78 48.8661L75.12 47.5905Z" fill="#FF5C26"/>
<path d="M71.5749 49.6093C69.7187 49.7125 67.9655 49.8156 66.1093 49.9187C64.266 49.9823 62.4228 50.0458 60.5554 50.0852C59.4773 50.108 58.9969 48.6707 59.8613 48.0259C60.2202 47.7581 60.5827 47.4938 60.953 47.2375L68.4812 41.7718L72.1937 38.9875C73.4312 38.0593 74.6687 37.1312 75.803 35.9968C74.6687 37.0281 73.328 37.8531 72.0905 38.7812L68.2749 41.3593L63.242 44.6447C62.3988 45.1951 61.3155 44.416 61.5656 43.4407C61.8427 42.3604 62.1197 41.2778 62.3968 40.2249L63.428 36.6156C63.7374 35.3781 64.1499 34.1406 64.5624 33.0062C64.0468 34.1406 63.6343 35.3781 63.1187 36.5125L61.8812 40.1218C61.0992 42.37 60.4099 44.5254 59.7254 46.7639C59.6521 47.0036 59.4996 47.2114 59.2921 47.352C57.1301 48.8173 54.9682 50.1977 52.8062 51.6718C51.5687 52.6 50.228 53.4249 48.9905 54.3531C48.9658 54.3696 48.941 54.3862 48.9163 54.4031C48.1572 54.9191 47.0956 54.452 47.0692 53.5346L46.7291 41.7158C46.7243 41.5491 46.7573 41.3834 46.8265 41.2316C48.2452 38.1166 49.8627 35.1023 51.7749 32.2843C53.7343 29.2937 55.8999 26.3031 58.2718 23.5187C55.7968 26.2 53.528 29.0875 51.3624 31.975C50.5025 33.2111 49.6426 34.4753 48.8264 35.7674C48.2219 36.7245 46.621 36.3342 46.5838 35.2028L45.9999 17.4343L45.5005 35.1617C45.4686 36.2959 43.8614 36.6922 43.2549 35.7331C42.4452 34.4529 41.5929 33.2002 40.7405 31.975C38.5749 28.9843 36.3062 26.2 33.8312 23.5187C36.203 26.3031 38.2655 29.2937 40.328 32.2843C42.1395 35.2028 43.8528 38.1214 45.2762 41.2316C45.3456 41.3833 45.3786 41.5491 45.3738 41.7159L45.0342 53.432C45.0076 54.3494 43.8904 54.8894 43.1812 54.3069C43.1583 54.288 43.1353 54.2691 43.1124 54.25C41.8749 53.3218 40.5343 52.3937 39.2968 51.5687C37.1423 50.0998 34.9879 48.6308 32.8334 47.2502C32.6124 47.1085 32.4486 46.8931 32.3718 46.642C31.6892 44.4102 31.0015 42.2605 30.2218 40.0187L28.9843 36.4093C28.5718 35.275 28.1593 34.0375 27.5405 32.9031C28.0562 34.0375 28.3655 35.275 28.6749 36.5125L29.7062 40.1218C29.9832 41.1746 30.2603 42.2572 30.5373 43.3376C30.7874 44.3129 29.7041 45.092 28.861 44.5416L23.828 41.2562L20.0124 38.7812C18.7749 37.8531 17.4343 37.0281 16.2999 35.9968C17.4343 37.1312 18.6718 38.0593 19.9093 38.9875L23.6218 41.7718L31.1499 47.2375C31.5202 47.4938 31.8827 47.7581 32.2416 48.0259C33.106 48.6707 32.6258 50.107 31.5476 50.0837C29.719 50.0442 27.8754 49.9814 25.9937 49.9187C24.1374 49.8156 22.3843 49.7125 20.528 49.6093C18.6718 49.4031 16.9187 49.3 15.1655 48.8875C16.9187 49.4031 18.7749 49.6093 20.528 49.9187C22.3843 50.125 24.1374 50.3312 25.9937 50.5375C29.3943 50.8375 32.6979 51.0406 36.0926 51.2407C36.2995 51.2529 36.4988 51.3231 36.6673 51.4438C37.3032 51.8993 37.939 52.3643 38.5749 52.9093C39.3925 53.5783 40.2101 54.1937 41.0278 54.8327C41.5405 55.2335 41.5787 55.9899 41.1215 56.4531C39.4717 58.125 37.8749 59.7968 36.203 61.4687C35.0687 62.6031 34.0374 63.6343 32.903 64.6656C31.7687 65.6968 30.6343 66.7281 29.3968 67.5531C30.7374 66.7281 31.9749 65.8 33.1093 64.7687C34.2437 63.7375 35.4812 62.8093 36.6155 61.7781C38.456 60.1216 40.2965 58.3831 42.137 56.7823C42.5247 56.445 43.1083 56.4127 43.4893 56.7575C43.6331 56.8875 43.7684 57.0261 43.8896 57.1787C43.922 57.2195 43.9559 57.259 43.9927 57.2959C44.2861 57.5895 44.5772 57.883 44.8288 58.1766C44.9919 58.3669 45.0672 58.6146 45.0588 58.8651L44.4911 75.8006C44.4703 76.4222 44.9686 76.9375 45.5905 76.9375H46.4156C47.0352 76.9375 47.5325 76.426 47.5152 75.8067L47.0419 58.8617C47.0349 58.6133 47.1102 58.368 47.2719 58.1792C47.524 57.8848 47.8159 57.5903 48.1103 57.2959C48.147 57.259 48.1866 57.2252 48.2274 57.1928C48.3722 57.078 48.5051 56.9511 48.6355 56.8219C49.0088 56.4519 49.5816 56.4628 49.9722 56.8144L55.4874 61.7781C56.6218 62.8093 57.7562 63.8406 58.9937 64.7687C60.2312 65.6968 61.3655 66.7281 62.7062 67.5531C61.4687 66.7281 60.3343 65.6968 59.1999 64.6656C58.0655 63.6343 56.9312 62.5 55.8999 61.4687C54.228 59.7968 52.6312 58.125 50.9814 56.4531C50.5243 55.9899 50.5613 55.2322 51.0667 54.8222C51.8872 54.1566 52.7076 53.506 53.528 52.9093C54.1553 52.4613 54.7825 52.0132 55.4098 51.4976C55.5955 51.3449 55.8236 51.2517 56.0636 51.2375C59.4397 51.0384 62.7265 50.8359 66.1093 50.5375C67.9655 50.3312 69.7187 50.2281 71.5749 49.9187C73.4312 49.7125 75.1843 49.5062 76.9374 48.8875C75.1843 49.3 73.328 49.5062 71.5749 49.6093Z" fill="#83331B" stroke="#83331B" stroke-width="1.1"/>
</svg>
