<svg width="92" height="92" viewBox="0 0 92 92" fill="none" xmlns="http://www.w3.org/2000/svg">
<rect width="92" height="92" rx="46" fill="#2B68B4"/>
<path d="M75.7747 46.4917C75.3341 44.3636 74.6216 42.8167 74.9872 40.6323C75.1841 39.4511 75.3247 38.1761 75.2591 36.9433C75.1607 35.3355 74.1388 33.8636 73.1638 32.898C72.47 32.2089 71.706 31.6558 70.8622 31.2854C69.9294 30.8683 69.006 30.3948 68.0216 30.2308C66.9341 30.048 65.8325 30.0901 64.745 30.2167C60.0857 30.7605 56.8372 33.5073 53.3357 36.3245C52.9513 36.6386 52.5716 36.9386 52.2013 37.2433C51.095 38.162 50.0357 39.0855 48.9388 40.1261C48.47 40.5714 47.9825 41.087 47.3919 41.2417C47.2982 41.2651 47.2138 41.3026 47.1153 41.3073C47.0216 41.312 46.9232 41.298 46.8247 41.2886C47.9028 40.7167 48.6763 39.6995 48.4982 38.3776C48.456 38.0448 48.4232 37.698 48.3575 37.3651C48.3153 37.1636 48.2638 36.9667 48.1841 36.7745C48.02 36.3855 47.7341 35.9729 47.6825 35.5698C47.5653 34.6183 48.3669 33.9245 47.9591 32.9542C47.5466 31.9886 46.956 31.2151 46.2716 30.4183C45.9763 30.0667 45.77 29.7854 45.5497 29.3823C45.381 29.0823 45.2825 28.6792 45.095 28.4073C44.5232 27.587 43.4825 27.2448 42.5357 27.0948C41.9357 27.0011 41.3028 27.0761 40.7122 27.2214C35.4997 28.5339 30.2357 32.5323 29.645 38.1714C28.5575 38.223 27.5122 38.4058 26.4341 38.6542C25.5997 38.8464 24.77 39.2167 23.9357 39.4511C22.295 39.9151 20.72 40.6698 19.2153 41.5933C17.9966 42.3433 15.9528 43.0886 16.1497 45.1323C16.1966 45.5823 16.2903 46.0042 16.4122 46.4167C16.8622 47.9261 17.7857 49.1636 18.8403 50.1198C22.0138 52.9886 26.0966 54.6901 30.2263 55.3136C30.2638 55.7073 30.3575 56.1292 30.3857 56.3308C30.4653 56.912 30.5169 57.5495 30.7044 58.1073C31.3325 59.9448 33.1841 62.1855 35.3685 61.5198C37.1028 60.9948 37.2435 58.5855 37.1169 57.0995C37.0653 56.4808 36.756 55.9136 36.3669 55.4261C36.9857 55.3558 37.5997 55.2808 38.195 55.1542C38.6685 55.0605 39.1419 54.9386 39.6107 54.8026C39.8263 55.0886 40.0091 55.323 40.0747 55.3933C41.4763 56.823 46.1263 58.6651 46.7497 55.5292C46.895 54.7933 46.731 54.1558 46.2482 53.5698C45.9857 53.2511 45.5825 52.9042 45.1935 52.6605C45.7278 52.4261 46.2669 52.2058 46.8153 52.0464C47.4716 51.8636 48.1513 51.812 48.7278 52.2948C49.881 53.2698 50.4903 55.0183 51.2263 56.3073C52.1169 57.8589 53.0638 59.387 54.1372 60.8167C56.3966 63.812 59.3028 66.0855 62.8607 67.2995C66.2544 68.4573 71.2513 69.5542 72.2169 64.7964C72.4419 63.6714 72.681 62.5042 73.2575 61.4776C74.4857 59.2886 75.5029 56.9448 75.6388 54.4089C75.7091 53.1808 75.4325 51.9854 75.4654 50.762C75.5122 49.3323 76.0747 47.9354 75.7747 46.4917Z" fill="#B5F3FF"/>
<mask id="mask0_1129_8720" style="mask-type:luminance" maskUnits="userSpaceOnUse" x="16" y="27" width="60" height="42">
<path d="M75.7742 46.489C75.3336 44.3609 74.6211 42.814 74.9867 40.6296C75.1836 39.4484 75.3242 38.1734 75.2586 36.9406C75.1602 35.3328 74.1383 33.8609 73.1633 32.8953C72.4695 32.2062 71.7055 31.6531 70.8617 31.2828C69.9289 30.8656 69.0055 30.3921 68.0211 30.2281C66.9336 30.0453 65.832 30.0875 64.7445 30.214C60.0852 30.7578 56.8367 33.5046 53.3352 36.3218C52.9508 36.6359 52.5711 36.9359 52.2008 37.2406C51.0945 38.1593 50.0352 39.0828 48.9383 40.1234C48.4695 40.5687 47.982 41.0843 47.3914 41.239C47.2977 41.2625 47.2133 41.3 47.1149 41.3046C47.0211 41.3093 46.9227 41.2953 46.8242 41.2859C47.9024 40.714 48.6758 39.6968 48.4977 38.375C48.4555 38.0421 48.4227 37.6953 48.357 37.3625C48.3149 37.1609 48.2633 36.964 48.1836 36.7718C48.0195 36.3828 47.7336 35.9703 47.682 35.5671C47.5649 34.6156 48.3664 33.9218 47.9586 32.9515C47.5461 31.9859 46.9555 31.2125 46.2711 30.4156C45.9758 30.064 45.7695 29.7828 45.5492 29.3796C45.3805 29.0796 45.282 28.6765 45.0945 28.4046C44.5227 27.5843 43.482 27.2421 42.5352 27.0921C41.9352 26.9984 41.3024 27.0734 40.7117 27.2187C35.4992 28.5312 30.2352 32.5296 29.6445 38.1687C28.557 38.2203 27.5117 38.4031 26.4336 38.6515C25.5992 38.8437 24.7695 39.214 23.9352 39.4484C22.2945 39.9125 20.7195 40.6671 19.2149 41.5906C17.9961 42.3406 15.9524 43.0859 16.1492 45.1296C16.1961 45.5796 16.2899 46.0015 16.4117 46.414C16.8617 47.9234 17.7852 49.1609 18.8399 50.1171C22.0133 52.9859 26.0961 54.6875 30.2258 55.3109C30.2633 55.7046 30.357 56.1265 30.3852 56.3281C30.4649 56.9093 30.5164 57.5468 30.7039 58.1046C31.332 59.9421 33.1836 62.1828 35.368 61.5171C37.1024 60.9921 37.243 58.5828 37.1164 57.0968C37.0649 56.4781 36.7555 55.9109 36.3664 55.4234C36.9852 55.3531 37.5992 55.2781 38.1945 55.1515C38.668 55.0578 39.1414 54.9359 39.6102 54.8C39.8258 55.0859 40.0086 55.3203 40.0742 55.3906C41.4758 56.8203 46.1258 58.6625 46.7492 55.5265C46.8945 54.7906 46.7305 54.1531 46.2477 53.5671C45.9852 53.2484 45.582 52.9015 45.193 52.6578C45.7274 52.4234 46.2664 52.2031 46.8149 52.0437C47.4711 51.8609 48.1508 51.8093 48.7274 52.2921C49.8805 53.2671 50.4899 55.0156 51.2258 56.3046C52.1164 57.8562 53.0633 59.3843 54.1367 60.814C56.3961 63.8093 59.3024 66.0828 62.8602 67.2968C66.2539 68.4546 71.2508 69.5515 72.2164 64.7937C72.4414 63.6687 72.6805 62.5015 73.257 61.475C74.4852 59.2859 75.5024 56.9421 75.6383 54.4062C75.7086 53.1781 75.432 51.9828 75.4649 50.7593C75.5117 49.3296 76.0742 47.9328 75.7742 46.489Z" fill="white"/>
</mask>
<g mask="url(#mask0_1129_8720)">
<path d="M66.7376 31.9712C68.0079 33.3165 68.2891 35.1259 68.0641 37.0009C67.8485 38.7259 66.9813 40.6993 67.2016 42.4431C67.4032 44.0649 68.4907 45.6071 68.7157 47.2899C68.9688 49.1884 67.9938 50.8571 67.2298 52.5259C66.2548 54.6399 66.0485 56.3649 66.4798 58.6571C67.0563 61.7556 65.8235 65.1399 62.6876 66.3212C62.0032 66.579 61.1407 66.3634 60.3907 66.4571C59.9641 67.9524 63.4188 68.6603 64.3798 68.8759C66.0673 69.2462 67.8532 69.7196 69.5829 69.3306C70.7501 69.0681 71.7298 68.3228 72.4376 67.404C73.511 66.0071 74.5188 64.6478 75.3251 63.0353C75.8923 61.9056 76.3282 60.8415 76.5719 59.5993C76.811 58.3665 77.2141 57.2087 77.2704 55.9524C77.3501 54.1946 77.8329 52.4743 77.8844 50.7071C77.9407 48.8181 78.0016 46.9337 78.0016 45.0446C78.0016 42.8368 77.8704 40.6337 77.8798 38.4399C77.8844 37.0665 77.786 35.7868 77.4251 34.4556C77.0641 33.1196 76.211 31.4087 74.9641 30.6915C74.3079 30.3118 73.6048 30.0868 72.986 29.6274C72.461 29.2337 71.7251 28.8681 71.0407 28.7743C68.4907 28.4228 64.9891 28.3009 62.936 30.0587C64.1407 30.2837 64.9423 30.5696 65.9641 31.3009C66.2548 31.5024 66.5126 31.7274 66.7376 31.9712ZM38.6782 28.6853C39.0907 28.7556 39.4329 28.8259 39.536 28.8728C41.0782 29.6134 41.2798 31.1181 41.486 32.6321C41.5751 33.2837 41.7344 33.7806 42.0344 34.3571C43.0094 36.2415 44.7719 37.6899 43.5063 39.9634C43.2579 40.3993 43.0798 40.5306 43.5907 40.8118C44.261 41.1774 45.3954 41.3228 46.1548 41.3415C47.4485 41.3743 48.0579 40.854 48.7001 39.8087C49.7501 38.0837 50.2001 35.2618 49.6844 33.2931C49.4548 32.4024 49.0798 31.5681 48.8688 30.6634C48.6063 29.5337 48.3063 28.4509 47.6079 27.504C46.9094 26.5524 46.1829 25.8634 45.0485 25.4321C44.0032 25.0384 42.6251 24.9071 41.5516 25.2446C40.5344 25.5634 39.5829 26.1446 38.6032 26.6509C38.1391 26.8899 36.5079 27.6306 36.6719 28.3618C36.6813 28.3853 37.8298 28.5399 38.6782 28.6853Z" fill="#253F49"/>
</g>
<path d="M59.0734 39.9452C58.5999 40.714 58.4405 41.614 59.7202 41.539C60.3624 41.5015 60.9999 41.2156 61.5906 40.9952C62.3406 40.7187 63.0952 40.428 63.7656 39.978C65.0687 39.0968 64.4452 37.6718 63.0062 37.5874C61.7124 37.5077 60.0671 38.6187 59.3124 39.5984C59.2234 39.7109 59.1484 39.828 59.0734 39.9452ZM59.4015 46.7609C59.1905 46.8593 58.9796 46.9624 58.7593 47.0749C58.389 47.2671 57.939 47.3843 58.0374 47.8905C58.239 48.9452 60.6577 49.0671 61.4265 49.1281C62.6077 49.2218 64.9468 49.3671 64.8015 47.5109C64.764 46.9859 64.4921 46.4796 63.9812 46.2406C63.4374 45.9874 62.8093 45.9218 62.2093 45.978C61.1593 46.0812 60.3015 46.3484 59.4015 46.7609ZM58.8109 54.7249C58.5765 54.8234 58.4124 55.0202 58.3749 55.3952C58.2296 56.9093 61.103 58.9437 62.4859 58.7937C63.2452 58.7093 63.3531 57.7624 63.2827 57.1624C63.2265 56.6937 63.0109 56.4218 62.7015 56.0609C62.1484 55.4093 61.3702 55.0202 60.5359 54.8562C60.0437 54.7577 59.2843 54.528 58.8109 54.7249Z" fill="white"/>
<path d="M23.5656 47.5234C22.5531 47.5797 21.6906 46.7125 21.6391 45.5781C21.6109 44.9219 21.8687 44.3266 22.2766 43.9234C22.5766 43.6328 22.9609 43.4453 23.3875 43.4219C23.425 43.4219 23.4625 43.4219 23.5047 43.4266C24.4703 43.4359 25.2719 44.2797 25.3281 45.3625C25.3703 46.5016 24.5828 47.4625 23.5656 47.5234Z" fill="#2F2F2F"/>
</svg>
