<svg width="92" height="92" viewBox="0 0 92 92" fill="none" xmlns="http://www.w3.org/2000/svg">
<rect width="92" height="92" rx="46" fill="#FFBA9F"/>
<path d="M63.3551 30.5185C62.734 30.1983 61.918 30.0493 60.7875 30.0493C52.0122 30.0493 22.1359 39.9169 20.8686 40.3374C20.5902 40.4296 20.3471 40.5899 20.1674 40.7995C18.2176 43.0743 18.6029 51.444 21.7476 55.6204C26.0794 61.3742 32.4726 63.0044 35.5497 63.2703C35.6 63.2745 35.7195 63.2801 35.7698 63.2801C39.6346 63.2801 64.5941 48.2991 66.4684 44.8563C68.6241 40.8984 68.4825 33.1622 63.3551 30.5185Z" fill="#EEEEEE"/>
<path d="M57.934 33.3748C51.6577 37.5566 37.536 45.9201 37.536 45.9201C36.4157 48.9045 34.5187 57.5496 36.3624 63.2801C41.5246 62.2416 64.6716 48.2187 66.4729 44.8998C68.0969 41.9098 68.4107 36.7676 66.2689 33.2856C63.5262 31.8471 60.5904 31.6045 57.934 33.3748Z" fill="#CCD6DD"/>
<path d="M67.948 28.3818C67.7716 28.2246 67.5597 28.108 67.3285 28.0412C67.0973 27.9744 66.8531 27.959 66.6147 27.9963L20.3196 35.2458C19.944 35.3048 19.6035 35.4911 19.3611 35.7704C19.1186 36.0497 18.9905 36.4031 19.0005 36.7653C19.0415 38.2803 19.0305 39.3843 19.0163 40.6248C19.0084 41.3148 19.0005 42.0468 19.0005 42.9123C19.0005 43.3578 19.2086 43.7823 19.5695 44.0673C22.7734 46.5978 33.3023 53.3028 35.6962 54.4428C35.9614 54.5671 36.2577 54.6185 36.5519 54.5915C36.8461 54.5645 37.1266 54.46 37.3619 54.2898C41.3901 51.3393 63.3383 39.3948 66.7739 37.9773C67.0335 37.8701 67.258 37.6984 67.4239 37.4801C67.5897 37.2618 67.6907 37.0051 67.7163 36.7368C67.9133 34.6788 68.4381 29.6253 68.4381 29.6253C68.4622 29.3961 68.4305 29.1648 68.3455 28.9491C68.2605 28.7335 68.1245 28.5394 67.948 28.3818Z" fill="#A0041E"/>
<path d="M68.0528 28.4843C64.8694 25.0418 52.8812 20.1233 50.8482 20.0393C50.7225 20.034 50.5966 20.0431 50.4731 20.0663C34.5466 23.0873 24.1248 31.7753 20.2007 35.0468L19.5451 35.5898C19.3653 35.7384 19.2231 35.9238 19.1292 36.1321C19.0352 36.3404 18.9919 36.5662 19.0025 36.7927C19.0132 37.0191 19.0774 37.2404 19.1904 37.4399C19.3035 37.6394 19.4624 37.812 19.6554 37.9448C20.1897 38.3093 32.761 46.8848 35.8199 48.5318C36.1074 48.684 36.4374 48.7478 36.7645 48.7142C37.0916 48.6806 37.3997 48.5514 37.6465 48.3443C43.8163 43.0958 64.5952 31.9028 67.4303 30.8783C67.6684 30.7922 67.8811 30.6524 68.05 30.471C68.2189 30.2895 68.3391 30.0718 68.4003 29.8365C68.4615 29.6011 68.4619 29.3552 68.4014 29.1197C68.3408 28.8842 68.2212 28.6662 68.0528 28.4843Z" fill="#DD2E44"/>
<path d="M31.9352 44.7204C31.5641 44.7199 31.205 44.5948 30.9214 44.367C30.6377 44.1392 30.4475 43.8235 30.3845 43.4754L30.312 43.0749C29.6847 39.6129 28.974 35.6874 27.6817 31.9374C27.5618 31.5622 27.6011 31.1572 27.7912 30.8092C27.9812 30.4612 28.3069 30.1979 28.6985 30.0757C29.09 29.9535 29.5163 29.9821 29.8859 30.1554C30.2556 30.3287 30.5392 30.633 30.676 31.0029C32.0408 34.9614 32.772 39.0009 33.4166 42.5649L33.4891 42.9639C33.5284 43.1795 33.5177 43.4006 33.4577 43.6118C33.3977 43.823 33.2899 44.0192 33.1419 44.1866C32.9938 44.3539 32.8091 44.4884 32.6006 44.5807C32.3922 44.6729 32.1651 44.7206 31.9352 44.7204ZM41.4571 44.3454C41.053 44.3451 40.6644 44.1971 40.3717 43.9319C40.079 43.6667 39.9045 43.3046 39.8843 42.9204C39.7629 40.6104 38.0152 30.9609 36.433 26.8629C36.3614 26.678 36.3289 26.4816 36.3372 26.2847C36.3454 26.0879 36.3944 25.8945 36.4811 25.7157C36.6564 25.3545 36.9752 25.0744 37.3675 24.9369C37.7598 24.7995 38.1933 24.816 38.5728 24.9828C38.7607 25.0654 38.9297 25.1824 39.0701 25.3271C39.2104 25.4719 39.3195 25.6415 39.391 25.8264C41.0678 30.1689 42.8849 39.9789 43.0315 42.7689C43.0424 42.9721 43.0097 43.1753 42.9355 43.3661C42.8613 43.5569 42.7471 43.7314 42.5998 43.8788C42.4525 44.0263 42.2753 44.1437 42.0788 44.2239C41.8824 44.3041 41.6708 44.3455 41.4571 44.3454ZM50.3218 38.6574C49.9445 38.6571 49.5799 38.5279 49.2942 38.2934C49.0084 38.0589 48.8206 37.7346 48.7648 37.3794L48.5867 36.1989C48.1249 33.1074 47.2645 27.3534 45.9391 23.5689C45.8704 23.3813 45.8415 23.1826 45.8542 22.9843C45.8669 22.786 45.9208 22.5921 46.0128 22.4138C46.1049 22.2355 46.2332 22.0764 46.3904 21.9457C46.5476 21.815 46.7304 21.7153 46.9284 21.6524C47.1264 21.5896 47.3355 21.5647 47.5437 21.5794C47.7518 21.5941 47.9548 21.648 48.1409 21.7379C48.327 21.8279 48.4925 21.9521 48.6277 22.1035C48.7629 22.2548 48.8652 22.4302 48.9287 22.6194C50.3439 26.6619 51.2311 32.5899 51.7071 35.7759L51.8836 36.9339C51.9174 37.1477 51.9023 37.3658 51.8393 37.5735C51.7763 37.7812 51.6669 37.9734 51.5186 38.1371C51.3703 38.3008 51.1865 38.432 50.98 38.5218C50.7734 38.6116 50.5489 38.6579 50.3218 38.6574ZM59.2511 33.5319C58.8605 33.5315 58.4839 33.393 58.1944 33.1433C57.905 32.8936 57.7233 32.5504 57.6846 32.1804C57.3915 29.3859 56.9392 27.3504 56.126 25.1544C56.0538 24.9679 56.0213 24.7696 56.0303 24.5711C56.0394 24.3725 56.0898 24.1776 56.1786 23.9978C56.2674 23.8179 56.3929 23.6567 56.5478 23.5234C56.7027 23.3901 56.8838 23.2874 57.0808 23.2213C57.2777 23.1552 57.4865 23.127 57.6949 23.1384C57.9034 23.1497 58.1074 23.2004 58.2951 23.2875C58.4828 23.3745 58.6505 23.4962 58.7884 23.6455C58.9262 23.7947 59.0316 23.9686 59.0983 24.1569C59.9887 26.5629 60.5056 28.8729 60.8208 31.8819C60.8428 32.0906 60.8186 32.3014 60.7497 32.5007C60.6809 32.6999 60.5689 32.8832 60.4209 33.0387C60.273 33.1942 60.0925 33.3184 59.891 33.4034C59.6895 33.4883 59.4715 33.5321 59.2511 33.5319Z" fill="#EA596E"/>
<path d="M67.2038 53.4985C64.6328 51.646 61.1213 50.4985 57.2498 50.4985C53.3783 50.4985 49.8668 51.646 47.2958 53.4985H42.9998V60.9985C42.9998 66.787 49.3928 71.4985 57.2498 71.4985C65.1068 71.4985 71.4998 66.787 71.4998 60.9985V53.4985H67.2038Z" fill="#292F33"/>
<path d="M57.2498 64.0022C65.1198 64.0022 71.4998 59.3012 71.4998 53.5022C71.4998 47.7032 65.1198 43.0022 57.2498 43.0022C49.3797 43.0022 42.9998 47.7032 42.9998 53.5022C42.9998 59.3012 49.3797 64.0022 57.2498 64.0022Z" fill="#292F33"/>
<path d="M67.875 53.5006C67.875 57.6436 63.1185 61.0006 57.2505 61.0006C51.3825 61.0006 46.626 57.6436 46.626 53.5006C46.626 49.3576 51.3825 46.0006 57.2505 46.0006C63.1185 46.0006 67.875 49.3576 67.875 53.5006Z" fill="#E1E8ED"/>
<path d="M57.25 62.2502C50.7025 62.2502 45.3745 58.3262 45.3745 53.5007C45.3745 48.6752 50.7025 44.7512 57.25 44.7512C63.7975 44.7512 69.124 48.6767 69.124 53.5007C69.124 58.3247 63.7975 62.2502 57.25 62.2502ZM57.25 47.2502C52.081 47.2502 47.875 50.0537 47.875 53.5007C47.875 56.9477 52.081 59.7512 57.25 59.7512C62.419 59.7512 66.625 56.9477 66.625 53.5007C66.625 50.0537 62.419 47.2502 57.25 47.2502Z" fill="#E1E8ED"/>
<path d="M50.814 52.8089C50.814 52.1759 53.523 52.3064 57.2505 52.3064C60.978 52.3064 63.564 51.4874 63.564 52.1204C63.564 54.7829 60.978 57.4484 57.2505 57.4484C53.523 57.4484 50.814 55.4714 50.814 52.8089Z" fill="#77B255"/>
<path d="M57.25 58.1963C53.086 58.1963 50.0635 55.9298 50.0635 52.8068C50.0635 52.5488 50.167 52.3028 50.356 52.1153C50.923 51.5498 52.1515 51.5258 55.6105 51.5483L57.25 51.5543C58.891 51.5543 60.331 51.3893 61.384 51.2678C62.8735 51.0983 63.5485 51.0203 64.003 51.4238L64.255 51.6473L64.3135 52.1168C64.3135 55.0403 61.612 58.1963 57.25 58.1963ZM51.5845 53.1593C51.82 55.2293 54.13 56.6948 57.25 56.6948C60.319 56.6948 62.461 54.6803 62.7745 52.6343C62.4445 52.6538 61.9825 52.7078 61.5565 52.7558C60.4675 52.8818 58.978 53.0528 57.2515 53.0528L55.603 53.0468C54.028 53.0378 52.2745 53.0303 51.5845 53.1593Z" fill="#77B255"/>
<path d="M64.0005 51.9997C64.0005 51.9997 61.0005 50.4997 56.5005 51.9997C52.965 53.1787 50.5005 55.8397 50.5005 53.1772C50.5005 50.5147 53.523 48.3577 57.2505 48.3577C60.978 48.3577 64.0005 50.4997 64.0005 51.9997Z" fill="#F4900C"/>
<path d="M51.169 55.0742C50.922 55.0761 50.6792 55.0102 50.467 54.8837C49.75 54.4517 49.75 53.4917 49.75 53.1767C49.75 50.1062 53.1145 47.6072 57.25 47.6072C61.405 47.6072 64.75 50.0102 64.75 51.9992C64.75 52.2587 64.615 52.5002 64.3945 52.6382C64.2862 52.7048 64.1628 52.7427 64.0358 52.7485C63.9088 52.7543 63.7824 52.7277 63.6685 52.6712C63.619 52.6457 60.838 51.3422 56.7385 52.7102C55.603 53.0882 54.586 53.6252 53.6905 54.1007C52.6675 54.6422 51.853 55.0742 51.169 55.0742ZM57.25 49.1072C53.941 49.1072 51.25 50.9327 51.25 53.1767C51.25 53.3672 51.265 53.4887 51.2815 53.5622C51.6295 53.4947 52.405 53.0852 52.9885 52.7762C53.89 52.3007 55.012 51.7052 56.2645 51.2882C58.8085 50.4407 60.91 50.4947 62.329 50.7392C61.315 49.9247 59.524 49.1072 57.25 49.1072Z" fill="#F4900C"/>
</svg>
