<svg width="92" height="92" viewBox="0 0 92 92" fill="none" xmlns="http://www.w3.org/2000/svg">
<rect width="92" height="92" rx="46" fill="#FFB25A"/>
<path d="M69.9121 45.3996C69.9121 43.2058 70.8121 40.9183 70.2683 38.9121C69.7058 36.8121 67.7746 35.2933 66.7246 33.4558C65.6558 31.5996 65.2808 29.1621 63.7808 27.6621C62.2808 26.1621 59.8433 25.7871 57.9871 24.7183C56.1496 23.6496 54.6308 21.7183 52.5308 21.1746C50.5058 20.6308 48.2183 21.5308 46.0433 21.5308C43.8496 21.5308 41.5621 20.6308 39.5558 21.1746C37.4558 21.7371 35.9371 23.6683 34.0996 24.7183C32.2246 25.7871 29.7871 26.1621 28.2871 27.6621C26.7871 29.1621 26.4121 31.5996 25.3433 33.4558C24.2746 35.2933 22.3433 36.8121 21.7996 38.9121C21.2558 40.9371 22.1558 43.2246 22.1558 45.3996C22.1558 47.5933 21.2558 49.8808 21.7996 51.8871C22.3621 53.9871 24.2933 55.5058 25.3433 57.3433C26.4121 59.1996 26.7871 61.6371 28.2871 63.1371C29.7871 64.6371 32.2246 65.0121 34.0808 66.0808C35.9183 67.1496 37.4371 65.3308 39.5371 65.8746C41.5621 66.4183 43.8496 65.5183 46.0246 65.5183C48.2183 65.5183 50.5058 66.4183 52.5121 65.8746C54.6121 65.3121 56.1308 67.1308 57.9683 66.0808C59.8246 65.0121 62.2621 64.6371 63.7621 63.1371C65.2621 61.6371 65.6371 59.1996 66.7058 57.3433C67.7746 55.5058 69.7058 53.9871 70.2496 51.8871C70.8121 49.8808 69.9121 47.5933 69.9121 45.3996Z" fill="white"/>
<path d="M41.3932 29.2335L44.3369 26.721C44.9744 26.1773 45.9494 26.2523 46.5119 26.9085C47.0744 27.5648 46.9994 28.5398 46.3432 29.0835L43.3994 31.5773C42.7432 32.1398 41.7682 32.0648 41.2244 31.4085C40.6619 30.7523 40.7369 29.7773 41.3932 29.2335ZM54.0119 34.5585V30.696C54.0119 29.8523 54.7057 29.1585 55.5494 29.1585C56.3932 29.1585 57.0869 29.8523 57.0869 30.696V34.5585C57.0869 35.4023 56.3932 36.096 55.5494 36.096C54.7057 36.096 54.0119 35.4023 54.0119 34.5585ZM38.2619 39.3023L39.8369 42.8272C40.1932 43.6147 41.0932 43.9522 41.8807 43.6147C42.6682 43.2585 43.0057 42.3585 42.6682 41.571L41.0932 38.046C41.0101 37.8608 40.8912 37.6938 40.7433 37.5547C40.5954 37.4157 40.4215 37.3073 40.2315 37.2358C40.0415 37.1643 39.8392 37.1312 39.6363 37.1383C39.4334 37.1454 39.234 37.1926 39.0494 37.2773C38.2619 37.6148 37.9244 38.5335 38.2619 39.3023ZM30.2182 40.6898L26.7869 42.471C26.0369 42.8648 25.7369 43.8022 26.1307 44.5522C26.5244 45.3022 27.4619 45.6023 28.2119 45.2085L31.6432 43.4273C32.3932 43.0335 32.6932 42.096 32.2994 41.346C32.109 40.9844 31.7835 40.7127 31.3938 40.5898C31.0041 40.4669 30.5816 40.5028 30.2182 40.6898ZM31.9619 31.6148L29.6744 34.7273C29.1682 35.421 29.2994 36.3773 29.9932 36.8835C30.6869 37.3898 31.6432 37.2398 32.1494 36.5648L34.4369 33.4523C34.5605 33.2909 34.6505 33.1063 34.7014 32.9096C34.7524 32.7128 34.7633 32.5078 34.7336 32.3067C34.7039 32.1056 34.6341 31.9126 34.5284 31.739C34.4227 31.5653 34.2832 31.4147 34.1182 31.296C33.7891 31.0548 33.3782 30.9529 32.9746 31.0126C32.571 31.0723 32.2071 31.2886 31.9619 31.6148ZM61.9619 42.246L64.4557 45.1898C64.9994 45.846 65.9744 45.921 66.6307 45.3585C67.2869 44.8148 67.3619 43.8398 66.7994 43.1835L64.3057 40.2397C64.1752 40.084 64.0149 39.9558 63.8343 39.8628C63.6536 39.7698 63.4562 39.7138 63.2537 39.6981C63.0511 39.6823 62.8474 39.7072 62.6545 39.7713C62.4617 39.8353 62.2836 39.9372 62.1307 40.071C61.4932 40.6335 61.3994 41.6085 61.9619 42.246ZM66.2932 53.2522L63.4619 55.8773C63.3142 56.0151 63.1407 56.1226 62.9515 56.1934C62.7622 56.2643 62.5609 56.2972 62.3589 56.2902C62.1569 56.2832 61.9583 56.2366 61.7744 56.1528C61.5905 56.0691 61.4248 55.95 61.2869 55.8022C61.149 55.6545 61.0416 55.4811 60.9707 55.2918C60.8999 55.1025 60.867 54.9012 60.874 54.6992C60.8809 54.4973 60.9276 54.2986 61.0113 54.1147C61.0951 53.9308 61.2142 53.7651 61.3619 53.6273L64.1932 51.0023C64.4936 50.7359 64.8861 50.5975 65.2871 50.6165C65.6881 50.6354 66.0658 50.8103 66.3398 51.1038C66.6137 51.3973 66.7621 51.7861 66.7534 52.1875C66.7447 52.5888 66.5796 52.9709 66.2932 53.2522ZM31.3057 54.7148L29.3744 51.3772C29.1669 51.0229 28.8278 50.765 28.4309 50.6596C28.034 50.5543 27.6116 50.61 27.2557 50.8148C26.9014 51.0223 26.6434 51.3614 26.5381 51.7583C26.4327 52.1551 26.4885 52.5776 26.6932 52.9335L28.6244 56.271C29.0557 57.0022 29.9932 57.2648 30.7432 56.8335C31.4932 56.4023 31.7369 55.4648 31.3057 54.7148ZM51.0869 39.5835L54.6307 41.1023C55.4182 41.4398 55.7744 42.3398 55.4369 43.1273C55.0994 43.9148 54.1994 44.271 53.4119 43.9335L49.8682 42.4148C49.682 42.3351 49.5133 42.2195 49.3719 42.0745C49.2305 41.9295 49.1191 41.758 49.0442 41.5698C48.9693 41.3816 48.9323 41.1805 48.9353 40.978C48.9384 40.7755 48.9814 40.5756 49.0619 40.3898C49.3994 39.6023 50.2994 39.246 51.0869 39.5835Z" fill="#FED899"/>
<path d="M32.875 49.125C32.875 48.6277 33.0725 48.1508 33.4242 47.7992C33.7758 47.4475 34.2527 47.25 34.75 47.25H57.25C57.7473 47.25 58.2242 47.4475 58.5758 47.7992C58.9275 48.1508 59.125 48.6277 59.125 49.125V64.125C59.125 65.6168 58.5324 67.0476 57.4775 68.1025C56.4226 69.1574 54.9918 69.75 53.5 69.75H38.5C37.0082 69.75 35.5774 69.1574 34.5225 68.1025C33.4676 67.0476 32.875 65.6168 32.875 64.125V49.125Z" fill="#292F33"/>
</svg>
