<svg width="92" height="92" viewBox="0 0 92 92" fill="none" xmlns="http://www.w3.org/2000/svg">
<rect width="92" height="92" rx="46" fill="#FF5757"/>
<path d="M29.2344 23.55H61.8413V35.3313L45.5378 40.3302L29.2344 35.3331V23.55ZM61.8413 55.0622V68.8589H29.2344V55.0622L45.5378 46.2371L61.8413 55.0622Z" fill="#F8312F"/>
<path d="M28.8175 20.625H61.9862C62.7169 20.625 63.4177 20.9153 63.9343 21.4319C64.451 21.9486 64.7412 22.6493 64.7412 23.38C64.7412 24.1107 64.451 24.8114 63.9343 25.3281C63.4177 25.8447 62.7169 26.135 61.9862 26.135H28.8175C28.0868 26.135 27.3861 25.8447 26.8694 25.3281C26.3528 24.8114 26.0625 24.1107 26.0625 23.38C26.0625 22.6493 26.3528 21.9486 26.8694 21.4319C27.3861 20.9153 28.0868 20.625 28.8175 20.625ZM28.8175 66.01H61.9862C63.5088 66.01 64.7412 67.2606 64.7412 68.7831C64.7412 70.3056 63.5088 71.5381 61.9862 71.5381H28.8175C27.295 71.5381 26.0625 70.3056 26.0625 68.7831C26.0625 67.2606 27.295 66.01 28.8175 66.01Z" fill="#EFEFEF"/>
<path d="M56.1428 55.1701C54.7872 56.6299 53.1448 57.794 51.3183 58.5893C49.4919 59.3846 47.5208 59.7941 45.5288 59.792C43.5367 59.7941 41.5656 59.3846 39.7392 58.5893C37.9127 57.794 36.2703 56.6299 34.9148 55.1701H29.2344V35.2507H35.0688C36.4207 33.8394 38.0445 32.7167 39.8423 31.9504C41.64 31.1841 43.5745 30.79 45.5288 30.792C49.6395 30.792 53.3515 32.503 55.9887 35.2507H61.8413V55.1701H56.1428Z" fill="#F4F4F4"/>
<path d="M48.3748 40.0527H42.6835C38.7323 40.0527 35.5242 43.2609 35.5242 47.2121C35.5242 51.1634 38.7323 54.3715 42.6835 54.3715H48.3748C52.326 54.3715 55.5342 51.1634 55.5342 47.2121C55.5342 43.2609 52.3442 40.0527 48.3748 40.0527Z" fill="#F8312F"/>
<path d="M52.8689 36.2498H48.7364C47.4314 36.2498 46.2714 36.8624 45.5319 37.8121C45.154 37.3312 44.6718 36.9424 44.1217 36.6749C43.5717 36.4074 42.9681 36.2682 42.3564 36.2679H38.2058C38.2058 38.4973 40.0183 40.3098 42.2658 40.3098H46.3983V40.2916H48.8271C51.0564 40.2916 52.8689 38.4791 52.8689 36.2498Z" fill="#00D26A"/>
</svg>
