<svg width="92" height="92" viewBox="0 0 92 92" fill="none" xmlns="http://www.w3.org/2000/svg">
<rect width="92" height="92" rx="46" fill="#92BA5B"/>
<path d="M64.0004 58.9992C70.0004 50.7992 18.5004 48.7992 18.5004 48.7992C18.5004 48.7992 17.3004 50.4992 18.2004 51.7992C18.8004 52.6992 19.3004 53.0992 19.0004 53.9992C18.7004 54.9992 19.8004 55.9992 20.0004 56.9992C20.3004 58.5992 19.4004 59.3992 21.3004 60.2992C22.0004 60.5992 25.7004 61.8992 25.9004 60.2992C26.5004 61.6992 27.7004 62.9992 29.1004 63.5992C30.5004 64.2992 32.3004 64.3992 33.6004 64.6992C34.3004 66.2992 35.3004 65.5992 36.4004 66.3992C37.6004 67.2992 39.4004 68.0992 40.9004 67.7992C42.2004 67.5992 42.1004 66.8992 43.5004 67.9992C43.4004 69.5992 44.9004 68.8992 46.0004 69.2992C47.0004 69.5992 51.2004 69.5992 51.8004 69.7992C52.4004 70.0992 51.3004 71.3992 52.2004 71.8992C53.7004 72.6992 55.5004 69.0992 56.2004 68.4992C56.1004 69.0992 55.8004 71.7992 57.2004 71.3992C59.0004 70.8992 58.5004 68.2992 60.0004 67.7992C61.7004 67.0992 62.8004 66.0992 63.2004 64.2992C63.4004 63.5992 63.4004 62.8992 63.4004 62.2992C64.5004 61.8992 64.6004 59.5992 64.0004 58.9992Z" fill="#F7F2DF"/>
<path d="M41.7002 65.5047C40.0002 64.6047 38.4002 64.4047 38.0002 65.0047C37.6002 65.6047 38.7002 66.9047 40.3002 67.8047C42.0002 68.7047 43.6002 68.9047 44.0002 68.3047C44.5002 67.6047 43.4002 66.4047 41.7002 65.5047ZM26.0002 59.5047C24.3002 58.7047 22.6002 58.5047 22.3002 59.2047C21.9002 59.8047 23.0002 61.0047 24.8002 61.9047C26.5002 62.7047 28.2002 62.9047 28.5002 62.2047C28.8002 61.5047 27.7002 60.3047 26.0002 59.5047ZM32.6002 62.6047C30.9002 61.8047 29.2002 61.6047 28.9002 62.3047C28.6002 63.0047 29.7002 64.2047 31.4002 65.0047C33.1002 65.8047 34.8002 66.0047 35.1002 65.3047C35.4002 64.6047 34.3002 63.4047 32.6002 62.6047ZM52.7002 66.5047C52.9002 66.0047 53.0002 65.6047 52.8002 65.3047C52.3002 64.7047 50.7002 65.1047 49.2002 66.2047C47.7002 67.3047 46.9002 68.7047 47.4002 69.3047C47.6002 69.6047 48.1002 69.6047 48.7002 69.5047C48.3002 70.2047 48.2002 70.8047 48.5002 71.1047C49.0002 71.7047 50.6002 71.1047 52.0002 69.9047C53.4002 68.7047 54.1002 67.2047 53.6002 66.7047C53.3002 66.5047 53.0002 66.4047 52.7002 66.5047ZM47.3002 64.1047C47.3002 64.2047 47.4002 64.3047 47.4002 64.3047C47.9002 64.9047 49.5002 64.5047 51.0002 63.4047C52.5002 62.3047 53.3002 60.9047 52.8002 60.3047C52.3002 59.7047 50.7002 60.1047 49.2002 61.2047L48.9002 61.5047C48.9002 61.3047 48.9002 61.1047 48.7002 61.0047C48.4002 60.6047 47.6002 60.7047 46.7002 61.2047C46.4002 61.2047 46.0002 61.1047 45.7002 61.1047C43.8002 61.0047 42.2002 61.6047 42.2002 62.3047C42.2002 62.8047 42.9002 63.3047 44.0002 63.5047C43.5002 64.3047 43.3002 65.0047 43.7002 65.3047C44.2002 65.9047 45.8002 65.3047 47.2002 64.1047H47.3002ZM58.5002 62.0047C57.8002 61.7047 56.6002 62.8047 55.8002 64.4047C55.3002 65.4047 55.0002 67.9047 55.7002 68.0047C56.5002 68.0047 57.6002 67.2047 58.4002 65.6047C59.2002 63.9047 59.2002 62.3047 58.5002 62.0047ZM63.5002 56.0047C62.8002 55.7047 61.6002 56.8047 60.8002 58.4047C60.0002 60.1047 60.0002 61.7047 60.7002 62.0047C61.4002 62.3047 62.6002 61.2047 63.4002 59.6047C64.2002 57.9047 64.2002 56.3047 63.5002 56.0047ZM28.0002 58.5047C27.7002 59.2047 28.8002 60.4047 30.5002 61.2047C32.2002 62.0047 33.9002 62.2047 34.2002 61.5047C34.5002 60.8047 33.4002 59.6047 31.7002 58.8047C30.1002 58.0047 28.4002 57.9047 28.0002 58.5047ZM24.0002 55.2047C23.9002 53.4047 23.2002 51.9047 22.4002 52.0047C21.6002 52.0047 21.1002 53.5047 21.2002 55.4047C21.3002 57.3047 22.0002 58.7047 22.8002 58.6047C23.5002 58.5047 24.1002 57.0047 24.0002 55.2047ZM29.4002 56.6047C30.5002 55.1047 30.9002 53.6047 30.3002 53.1047C29.7002 52.7047 28.2002 53.5047 27.1002 55.0047C26.0002 56.5047 25.6002 58.0047 26.2002 58.5047C26.9002 58.9047 28.3002 58.0047 29.4002 56.6047ZM42.9002 60.4047C42.9002 59.7047 41.4002 59.0047 39.5002 58.9047C37.6002 58.8047 36.0002 59.4047 36.0002 60.1047C36.0002 60.8047 37.5002 61.5047 39.4002 61.6047C41.3002 61.7047 42.9002 61.2047 42.9002 60.4047Z" fill="#E8E1D6"/>
<path d="M27.3999 27.7024H52.7999V37.6024H27.3999V27.7024Z" fill="#1E2116"/>
<path d="M52.1999 35.0925C54.6999 39.7925 49.7999 45.3925 40.0999 45.3925C30.4999 45.3925 25.5999 39.7925 27.9999 35.0925C29.7999 31.6925 34.9999 29.5925 40.0999 29.5925C45.1999 29.6925 50.3999 31.7925 52.1999 35.0925Z" fill="#1E2116"/>
<path d="M52.1999 25.4C54.6999 30.2 49.7999 35.7 40.0999 35.7C30.4999 35.7 25.5999 30.1 27.9999 25.4C29.7999 22.1 34.9999 20 40.0999 20C45.1999 20 50.3999 22.1 52.1999 25.4Z" fill="#A8DB77"/>
<path d="M51.1 25.3992C53.1 29.5992 48.5 34.3992 40.1 34.3992C31.7 34.3992 27.1 29.5992 29.1 25.3992C30.6 22.2992 35.3 20.2992 40.1 20.2992C44.9 20.2992 49.6 22.2992 51.1 25.3992Z" fill="#FFF1E6"/>
<path d="M45.5997 25.9061C46.0997 27.8061 43.5996 29.7061 40.0996 29.7061C36.5996 29.7061 34.1997 27.9061 34.5997 25.9061C34.9997 24.2061 37.3996 23.1061 40.0996 23.1061C42.7997 23.1061 45.1997 24.2061 45.5997 25.9061Z" fill="#FF5555"/>
<path d="M50.6001 35.3933H76.0001V45.2933H50.6001V35.3933Z" fill="#1E2116"/>
<path d="M75.4005 42.791C77.9005 47.491 73.0005 53.091 63.3005 53.091C53.7005 53.091 48.8005 47.491 51.2005 42.791C53.0005 39.391 58.2005 37.291 63.3005 37.291C68.4005 37.291 73.6005 39.491 75.4005 42.791Z" fill="#1E2116"/>
<path d="M75.4005 33.1061C77.9005 37.8061 73.0005 43.4061 63.3005 43.4061C53.7005 43.4061 48.8005 37.8061 51.2005 33.1061C53.0005 29.7061 58.2005 27.6061 63.3005 27.6061C68.4005 27.6061 73.6005 29.8061 75.4005 33.1061Z" fill="#A8DB77"/>
<path d="M74.2993 33.1C76.2993 37.3 71.6993 42.1 63.2993 42.1C54.8993 42.1 50.2993 37.3 52.2993 33.1C53.7993 30 58.4993 28 63.2993 28C67.9993 28.1 72.7993 30 74.2993 33.1Z" fill="#FFF1E6"/>
<path d="M68.7998 33.5992C69.2998 35.4992 66.7998 37.3992 63.2998 37.3992C59.7998 37.3992 57.3998 35.5992 57.7998 33.5992C58.1998 31.8992 60.5998 30.7992 63.2998 30.7992C65.9998 30.7992 68.3998 31.8992 68.7998 33.5992Z" fill="#FF5555"/>
<path d="M16 45.198C15.9 47.398 17.5 50.298 19.8 51.698C22.1 53.098 56.2 66.198 58 64.298C59.7 62.398 51.3 51.598 46.6 49.598C34 44.198 16 45.198 16 45.198Z" fill="#EC6430"/>
<path d="M57.4996 60.4008C57.3996 61.5008 57.5996 64.6008 57.9996 64.4008C60.1996 62.8008 66.2996 55.0008 63.4996 48.7008L57.4996 60.4008Z" fill="#E8491F"/>
<path d="M16 45.1959C16 45.1959 21.6 38.1959 23.7 37.3959C29.6 35.2959 29.8 35.3959 34.2 36.3959C38.7 37.3959 58.8 42.3959 63.4 48.5959C64.6 50.1959 58.7 60.7959 57.4 61.5959C56.2 62.1959 49.2 60.1959 39.8 54.0959C29.1 47.1959 18.3 45.7959 16 45.1959Z" fill="#F3813B"/>
<path d="M52.3 59.5061C51.8 59.2061 51.2 58.9061 50.7 58.6061C50.4 55.3061 51.6 51.5061 51.4 48.2061C50.7 51.2061 49 54.2061 48.2 57.2061C48 57.1061 47.7 56.9061 47.5 56.8061C45.6 55.6061 43.6 54.5061 41.7 53.3061C43 49.4061 43.8 45.0061 41.9 41.2061C42.8 45.0061 41.3 48.7061 39.4 52.0061C38.9 51.7061 38.4 51.4061 37.8 51.1061C36.1 50.2061 34.3 49.4061 32.5 48.6061C31.7 45.2061 34.7 41.0061 31.6 38.1061C33.4 41.0061 30.9 44.4061 30.1 47.6061C29.2 47.3061 28.2 46.9061 27.3 46.7061C23.6 45.7061 19.8 45.0061 16 45.2061C19.6 46.2061 23.1 47.5061 26.5 48.9061C29.9 50.4061 33.1 52.0061 36.4 53.7061C39.7 55.4061 43 57.2061 46.4 58.7061C48.1 59.5061 49.9 60.2061 51.7 60.7061C53.5 61.2061 55.5 61.6061 57.4 61.4061C55.6 61.1061 53.9 60.4061 52.3 59.5061Z" fill="#F4A24E"/>
</svg>
