<svg width="92" height="92" viewBox="0 0 92 92" fill="none" xmlns="http://www.w3.org/2000/svg">
<rect width="92" height="92" rx="46" fill="#B3D48C"/>
<path d="M35.6382 31.3951L35.402 31.6445C34.6314 32.3841 33.8942 33.1578 33.1926 33.9632C33.1357 34.0245 33.0613 34.112 32.9913 34.1907C31.1976 36.107 29.4388 38.0495 27.7107 40.0182C25.3088 42.6738 21.2313 45.4695 20.1376 46.8563C19.0176 48.2782 18.2563 49.7438 17.8013 51.1963C17.7182 51.4588 17.6438 51.7213 17.5826 51.9795C17.5563 52.0757 17.5301 52.1763 17.5082 52.2726C17.1363 53.9263 17.2282 55.532 17.727 57.002C17.7751 57.1463 17.8145 57.2907 17.8713 57.4307C17.9238 57.5707 17.9938 57.7063 18.0551 57.842C18.6851 59.2595 19.7088 60.4976 21.1045 61.4601C21.1876 61.517 21.2751 61.5695 21.3626 61.6263C21.5857 61.7751 21.8176 61.9151 22.0538 62.0551C23.3751 62.812 24.9282 63.372 26.7176 63.652C28.4588 63.9276 33.7657 64.2601 37.3313 64.5751C39.9388 64.8507 55.2382 63.8226 58.0732 62.7113C63.5682 60.5545 68.1138 57.6013 70.262 52.2813C70.6732 51.2663 70.9926 50.2688 71.2507 49.2801C71.3339 48.9563 71.4039 48.6326 71.4739 48.3132C72.2745 44.5157 71.9332 40.902 70.4326 37.4588C69.1945 33.9151 66.9982 31.032 63.8307 28.7832C63.5639 28.5951 63.2926 28.4026 63.0082 28.2232C62.1232 27.6518 61.2009 27.1403 60.2476 26.692C55.0588 24.2463 48.807 24.207 43.3076 26.3507C40.4638 27.462 37.8213 29.142 35.6382 31.3951Z" fill="#46681E"/>
<path d="M66.4285 37.5883C66.3497 37.5096 66.2666 37.4352 66.1878 37.3608C65.4721 36.6086 64.7202 35.8917 63.9347 35.2127C63.8734 35.1602 63.7859 35.0858 63.7116 35.0202C61.8522 33.279 59.9622 31.5683 58.0416 29.8883C55.4603 27.5521 51.8859 22.954 50.5341 21.8908C49.1472 20.8015 47.7034 20.0621 46.2684 19.6158C46.0059 19.5327 45.7478 19.4627 45.4853 19.4015C45.3891 19.3752 45.2884 19.349 45.1922 19.3271C43.5472 18.964 41.9416 19.0471 40.4584 19.524C40.3141 19.5721 40.1697 19.6071 40.0253 19.664C39.8853 19.7165 39.7453 19.7821 39.6097 19.839C38.1747 20.4471 36.9059 21.4358 35.9041 22.7877C35.8428 22.8665 35.7903 22.954 35.7291 23.0371C35.5716 23.2515 35.4272 23.4746 35.2828 23.7065C34.4909 24.984 33.8828 26.489 33.5459 28.2215C33.2178 29.9102 33.6291 35.6852 33.2091 39.1415C32.8547 41.6658 32.5484 44.199 32.2816 46.7321C32.2684 46.8327 32.2553 46.9421 32.2422 47.0252C32.0921 48.0522 31.9928 49.0859 31.9447 50.1227C31.9359 50.2321 31.9228 50.3415 31.9097 50.4552C31.6428 53.4915 32.1109 56.4796 33.1391 59.2315C35.1297 64.5646 39.2684 68.9965 44.5228 71.0921C45.5247 71.4902 46.5134 71.8052 47.4934 72.059C47.8172 72.1421 48.1366 72.2121 48.4559 72.2777C52.2316 73.0652 55.8497 72.7371 59.3366 71.2933C62.9153 70.1033 65.8641 67.9815 68.2047 64.9146C68.4016 64.6565 68.5984 64.394 68.7866 64.1183C69.3831 63.2639 69.9224 62.3709 70.4009 61.4452C72.9997 56.4227 73.2272 50.3633 71.241 45.0302C70.2172 42.274 68.616 39.7102 66.4285 37.5883ZM67.7584 60.0758C67.3356 60.8879 66.8621 61.6725 66.341 62.4252C66.1791 62.6615 66.0084 62.8846 65.8378 63.1121C63.9784 65.5533 61.7253 67.2377 58.9603 68.2702L58.2997 68.5021C58.2997 68.5021 57.8359 68.6902 57.6522 68.7602C54.8828 69.7927 52.0784 69.9896 49.0684 69.364C48.7928 69.3071 48.5172 69.2458 48.2416 69.1758C47.3272 68.9396 46.4741 68.664 45.6341 68.3271C41.2853 66.5946 37.6628 62.8058 35.9347 58.1902C35.0159 55.7315 34.6616 53.2202 34.8803 50.7177L34.9153 50.3721C34.9678 49.3133 35.0597 48.3683 35.1953 47.454L35.2478 47.0471C35.5096 44.5454 35.8144 42.0483 36.1622 39.5571C36.5166 36.6652 36.1403 30.5008 36.4728 28.7902C36.7266 27.4865 37.1772 26.3052 37.8159 25.2771C37.9209 25.1065 38.0303 24.9402 38.1484 24.7783L38.2578 24.6208C38.9666 23.6671 39.8022 22.9977 40.7778 22.5821L40.9659 22.499L41.1803 22.4202L41.3772 22.359C42.3834 22.0352 43.4509 21.9915 44.5491 22.2365L44.7503 22.289C44.9997 22.3458 45.1878 22.4027 45.3759 22.4596C46.5309 22.8183 47.6466 23.4177 48.6922 24.2358C50.2322 25.4433 54.8216 30.9908 56.0422 32.0977C57.9409 33.7558 59.8222 35.4577 61.6772 37.1946L61.9922 37.4746C62.6878 38.0783 63.3747 38.7346 64.0353 39.4215L64.2672 39.6446C66.1616 41.4777 67.5397 43.6127 68.4541 46.0715C70.1691 50.6827 69.9066 55.9196 67.7584 60.0758Z" fill="#AFB42B"/>
<path d="M64.0351 39.411C63.3788 38.7242 62.6876 38.0679 61.9919 37.4642L61.6769 37.1842C59.8282 35.4528 57.9496 33.7536 56.0419 32.0873C54.8213 30.9848 50.2363 25.4373 48.6919 24.2254C47.6463 23.4073 46.5307 22.8079 45.3757 22.4492C45.1876 22.3923 44.9994 22.3354 44.7501 22.2785L44.5488 22.226C43.4507 21.9854 42.3832 22.0248 41.3769 22.3485L41.1801 22.4098L40.9657 22.4885L40.7776 22.5717C39.8019 22.9873 38.9663 23.6523 38.2576 24.6104L38.1482 24.7679C38.0344 24.9298 37.9251 25.096 37.8157 25.2667C37.1769 26.2948 36.7263 27.476 36.4726 28.7798C36.1401 30.4904 36.5163 36.6548 36.1619 39.5467C35.8207 41.9748 35.5144 44.4948 35.2476 47.0367L35.1951 47.4435C35.0638 48.3535 34.9719 49.3029 34.9151 50.3617L34.8801 50.7073C34.6613 53.2098 35.0157 55.721 35.9344 58.1798C37.6582 62.7954 41.2851 66.5842 45.6338 68.3167C46.4738 68.6535 47.3269 68.9292 48.2413 69.1654C48.5213 69.2354 48.7969 69.2967 49.0682 69.3535C52.0738 69.9792 54.8826 69.7823 57.6519 68.7498C57.8357 68.6798 58.2994 68.4917 58.2994 68.4917L58.9601 68.2598C61.7294 67.2273 63.9782 65.5385 65.8376 63.1017C66.0082 62.8785 66.1788 62.651 66.3407 62.4148C66.8832 61.636 67.3469 60.866 67.7582 60.0654C69.9107 55.9092 70.1688 50.6723 68.4538 46.0523C67.5394 43.5935 66.1613 41.4629 64.2669 39.6254L64.0351 39.411Z" fill="#FFF69F"/>
<path d="M60.8114 49.8175C62.4914 54.3237 60.1989 59.3419 55.6926 61.0175C51.1864 62.6931 46.1682 60.405 44.4926 55.8987C42.817 51.3925 45.5864 42.7869 48.6226 41.8637C51.7464 40.9187 59.1314 45.3112 60.8114 49.8175Z" fill="#855C52"/>
<path d="M53.7242 46.3314C53.4442 47.3114 55.2817 49.1708 55.5749 52.0364C55.798 54.202 56.9092 55.182 58.2349 54.9108C59.5824 54.6395 60.0986 51.9664 58.598 49.4595C57.1411 47.0183 54.188 44.7083 53.7242 46.3314Z" fill="#D7CCC8"/>
</svg>
