<svg width="28" height="28" viewBox="0 0 28 28" fill="none" xmlns="http://www.w3.org/2000/svg">
<path d="M13.9999 2.33203C7.55633 2.33203 2.33325 7.55511 2.33325 13.9987C2.33325 20.4423 7.55633 25.6654 13.9999 25.6654C20.4435 25.6654 25.6666 20.4423 25.6666 13.9987C25.6666 7.55511 20.4435 2.33203 13.9999 2.33203ZM13.9999 17.2857C14.2379 17.2857 14.4662 17.3803 14.6345 17.5486C14.8028 17.7169 14.8974 17.9451 14.8974 18.1831V18.7814C14.8974 19.0194 14.8028 19.2477 14.6345 19.416C14.4662 19.5843 14.2379 19.6789 13.9999 19.6789C13.7619 19.6789 13.5336 19.5843 13.3653 19.416C13.197 19.2477 13.1025 19.0194 13.1025 18.7814V18.1831C13.1025 17.9451 13.197 17.7169 13.3653 17.5486C13.5336 17.3803 13.7619 17.2857 13.9999 17.2857ZM16.2399 9.1322C16.8909 9.70896 17.2905 10.5537 17.2905 11.5936C17.2905 12.3594 17.0943 12.9553 16.7521 13.4399C16.4457 13.8766 16.0485 14.1746 15.7673 14.3852L15.735 14.4091C15.4203 14.6461 15.2372 14.792 15.108 14.9763C15.0003 15.1283 14.8974 15.3556 14.8974 15.79C14.8974 16.028 14.8028 16.2563 14.6345 16.4246C14.4662 16.5929 14.2379 16.6874 13.9999 16.6874C13.7619 16.6874 13.5336 16.5929 13.3653 16.4246C13.197 16.2563 13.1025 16.028 13.1025 15.79C13.1025 15.0242 13.2987 14.4259 13.6409 13.9425C13.9473 13.5069 14.3445 13.209 14.6257 12.9972L14.658 12.9732C14.9727 12.7363 15.1558 12.5903 15.285 12.406C15.3927 12.2541 15.4956 12.0267 15.4956 11.5936C15.4956 11.0431 15.297 10.6961 15.0505 10.476C14.7565 10.2298 14.3834 10.098 13.9999 10.105C13.5931 10.105 13.2138 10.2414 12.9505 10.476C12.7028 10.6949 12.5042 11.0431 12.5042 11.5936C12.5042 11.8316 12.4096 12.0599 12.2413 12.2282C12.073 12.3965 11.8448 12.491 11.6068 12.491C11.3687 12.491 11.1405 12.3965 10.9722 12.2282C10.8039 12.0599 10.7093 11.8316 10.7093 11.5936C10.7093 10.5537 11.109 9.70896 11.7587 9.1322C12.3812 8.59522 13.1778 8.30303 13.9999 8.31015C14.7897 8.31015 15.6069 8.57101 16.2399 9.1322Z" fill="#5F6566"/>
</svg>
