<svg width="24" height="24" viewBox="0 0 24 24" fill="none" xmlns="http://www.w3.org/2000/svg">
<path d="M12 2C6.47692 2 2 6.47692 2 12C2 17.5231 6.47692 22 12 22C17.5231 22 22 17.5231 22 12C22 6.47692 17.5231 2 12 2ZM12 14.8174C12.204 14.8174 12.3997 14.8985 12.5439 15.0427C12.6882 15.187 12.7692 15.3827 12.7692 15.5867V16.0995C12.7692 16.3035 12.6882 16.4992 12.5439 16.6434C12.3997 16.7877 12.204 16.8687 12 16.8687C11.796 16.8687 11.6003 16.7877 11.4561 16.6434C11.3118 16.4992 11.2308 16.3035 11.2308 16.0995V15.5867C11.2308 15.3827 11.3118 15.187 11.4561 15.0427C11.6003 14.8985 11.796 14.8174 12 14.8174ZM13.92 7.82872C14.4779 8.32308 14.8205 9.04718 14.8205 9.93846C14.8205 10.5949 14.6523 11.1056 14.359 11.521C14.0964 11.8954 13.7559 12.1508 13.5149 12.3313L13.4872 12.3518C13.2174 12.5549 13.0605 12.68 12.9497 12.8379C12.8574 12.9682 12.7692 13.1631 12.7692 13.5354C12.7692 13.7394 12.6882 13.9351 12.5439 14.0793C12.3997 14.2236 12.204 14.3046 12 14.3046C11.796 14.3046 11.6003 14.2236 11.4561 14.0793C11.3118 13.9351 11.2308 13.7394 11.2308 13.5354C11.2308 12.879 11.399 12.3662 11.6923 11.9518C11.9549 11.5785 12.2954 11.3231 12.5364 11.1415L12.5641 11.121C12.8338 10.9179 12.9908 10.7928 13.1015 10.6349C13.1938 10.5046 13.2821 10.3097 13.2821 9.93846C13.2821 9.46667 13.1118 9.16923 12.9005 8.98051C12.6485 8.76949 12.3287 8.65658 12 8.66256C11.6513 8.66256 11.3262 8.77949 11.1005 8.98051C10.8882 9.16821 10.7179 9.46667 10.7179 9.93846C10.7179 10.1425 10.6369 10.3381 10.4926 10.4824C10.3484 10.6266 10.1527 10.7077 9.94872 10.7077C9.74471 10.7077 9.54905 10.6266 9.40479 10.4824C9.26053 10.3381 9.17949 10.1425 9.17949 9.93846C9.17949 9.04718 9.52205 8.32308 10.079 7.82872C10.6126 7.36844 11.2954 7.118 12 7.1241C12.6769 7.1241 13.3774 7.34769 13.92 7.82872Z" fill="white"/>
</svg>
