<svg width="24" height="24" viewBox="0 0 24 24" fill="none" xmlns="http://www.w3.org/2000/svg">
<path d="M20.0004 19.9999L15.9504 15.9499M15.9504 15.9499C16.6004 15.2998 17.116 14.5281 17.4678 13.6788C17.8196 12.8295 18.0007 11.9192 18.0007 10.9999C18.0007 10.0806 17.8196 9.17027 17.4678 8.32095C17.116 7.47163 16.6004 6.69991 15.9504 6.04987C15.3003 5.39983 14.5286 4.88418 13.6793 4.53238C12.83 4.18058 11.9197 3.99951 11.0004 3.99951C10.0811 3.99951 9.17076 4.18058 8.32144 4.53238C7.47211 4.88418 6.7004 5.39983 6.05036 6.04987C4.73754 7.36269 4 9.14326 4 10.9999C4 12.8565 4.73754 14.637 6.05036 15.9499C7.36318 17.2627 9.14375 18.0002 11.0004 18.0002C12.857 18.0002 14.6375 17.2627 15.9504 15.9499Z" stroke="white" stroke-width="1.5" stroke-linecap="round" stroke-linejoin="round"/>
</svg>
