<svg width="28" height="28" viewBox="0 0 28 28" fill="none" xmlns="http://www.w3.org/2000/svg">
<path fill-rule="evenodd" clip-rule="evenodd" d="M16.3146 2.96436C16.4161 3.16153 16.4418 3.4147 16.4919 3.92103C16.5876 4.8777 16.6354 5.35603 16.8361 5.6197C16.9611 5.78341 17.1273 5.9111 17.3176 5.98978C17.508 6.06847 17.7158 6.09535 17.9199 6.0677C18.2466 6.02453 18.6199 5.72003 19.3643 5.11103C19.7574 4.78786 19.9546 4.62686 20.1658 4.5592C20.4347 4.47326 20.7257 4.48777 20.9848 4.60003C21.1889 4.6887 21.3698 4.86836 21.7279 5.2277L22.7709 6.2707C23.1303 6.63003 23.3099 6.8097 23.3986 7.01386C23.5109 7.27293 23.5254 7.56392 23.4394 7.83287C23.3718 8.04403 23.2108 8.2412 22.8888 8.63437C22.2786 9.37987 21.9741 9.75203 21.9298 10.0799C21.9024 10.2839 21.9296 10.4916 22.0085 10.6817C22.0874 10.8719 22.2152 11.0377 22.3789 11.1625C22.6414 11.3632 23.1209 11.411 24.0788 11.5067C24.5839 11.5569 24.8371 11.5825 25.0354 11.684C25.2856 11.8138 25.4804 12.0297 25.5838 12.2919C25.6666 12.4984 25.6666 12.7527 25.6666 13.2614V14.736C25.6666 15.2447 25.6666 15.499 25.5849 15.7044C25.4812 15.9674 25.2855 16.1838 25.0343 16.3134C24.8371 16.4149 24.5839 16.4405 24.0776 16.4907C23.1209 16.5864 22.6426 16.6342 22.3789 16.8349C22.2152 16.9599 22.0875 17.126 22.0088 17.3164C21.9301 17.5068 21.9033 17.7146 21.9309 17.9187C21.9753 18.2454 22.2798 18.6187 22.8888 19.363C23.2108 19.7562 23.3718 19.9522 23.4394 20.1645C23.5254 20.4335 23.5109 20.7245 23.3986 20.9835C23.3099 21.1877 23.1303 21.3674 22.7709 21.7267L21.7279 22.7685C21.3686 23.129 21.1889 23.3087 20.9848 23.3962C20.7257 23.5085 20.4347 23.523 20.1658 23.437C19.9546 23.3694 19.7574 23.2084 19.3643 22.8864C18.6188 22.2774 18.2466 21.9729 17.9199 21.9297C17.7158 21.902 17.508 21.9289 17.3176 22.0076C17.1273 22.0863 16.9611 22.214 16.8361 22.3777C16.6354 22.6402 16.5876 23.1185 16.4919 24.0764C16.4418 24.5827 16.4161 24.8359 16.3146 25.033C16.1853 25.2841 15.9693 25.4798 15.7068 25.5837C15.5003 25.6654 15.2459 25.6654 14.7373 25.6654H13.2626C12.7539 25.6654 12.4996 25.6654 12.2943 25.5837C12.0312 25.48 11.8148 25.2843 11.6853 25.033C11.5838 24.8359 11.5581 24.5827 11.5079 24.0764C11.4123 23.1197 11.3644 22.6414 11.1638 22.3777C11.0388 22.2142 10.8729 22.0866 10.6827 22.0079C10.4926 21.9292 10.285 21.9023 10.0811 21.9297C9.75325 21.9729 9.38109 22.2774 8.63559 22.8864C8.24242 23.2095 8.04525 23.3705 7.83409 23.4382C7.56514 23.5241 7.27415 23.5096 7.01509 23.3974C6.81092 23.3087 6.63009 23.129 6.27192 22.7697L5.22892 21.7267C4.86959 21.3674 4.68992 21.1877 4.60125 20.9835C4.48899 20.7245 4.47448 20.4335 4.56042 20.1645C4.62809 19.9534 4.78909 19.7562 5.11109 19.363C5.72125 18.6175 6.02575 18.2454 6.06892 17.9175C6.09636 17.7136 6.06937 17.506 5.99069 17.3159C5.91201 17.1257 5.78444 16.9598 5.62092 16.8349C5.35842 16.6342 4.87892 16.5864 3.92109 16.4907C3.41592 16.4405 3.16275 16.4149 2.96442 16.3134C2.71422 16.1836 2.51945 15.9677 2.41609 15.7055C2.33325 15.499 2.33325 15.2447 2.33325 14.736V13.2614C2.33325 12.7527 2.33325 12.4984 2.41492 12.293C2.51862 12.03 2.7143 11.8136 2.96559 11.684C3.16275 11.5825 3.41592 11.5569 3.92225 11.5067C4.87892 11.411 5.35842 11.3632 5.62092 11.1625C5.78465 11.0377 5.91245 10.8719 5.99134 10.6817C6.07023 10.4916 6.0974 10.2839 6.07009 10.0799C6.02575 9.75203 5.72009 9.37987 5.11109 8.6332C4.78909 8.24003 4.62809 8.04403 4.56042 7.8317C4.47448 7.56275 4.48899 7.27176 4.60125 7.0127C4.68992 6.8097 4.86959 6.62886 5.22892 6.26953L6.27192 5.2277C6.63125 4.86836 6.81092 4.68753 7.01509 4.60003C7.27415 4.48777 7.56514 4.47326 7.83409 4.5592C8.04525 4.62686 8.24242 4.78786 8.63559 5.10986C9.38109 5.71886 9.75325 6.02337 10.0799 6.0677C10.2843 6.09544 10.4924 6.06848 10.6831 5.98958C10.8737 5.91067 11.0399 5.78264 11.1649 5.61853C11.3633 5.35603 11.4123 4.8777 11.5079 3.91986C11.5581 3.4147 11.5838 3.16153 11.6853 2.9632C11.8148 2.71256 12.0307 2.51735 12.2931 2.4137C12.4996 2.33203 12.7539 2.33203 13.2626 2.33203H14.7373C15.2459 2.33203 15.5003 2.33203 15.7056 2.4137C15.9686 2.5174 16.185 2.71308 16.3146 2.96436ZM13.9999 18.6654C15.2376 18.6654 16.4246 18.1737 17.2998 17.2985C18.1749 16.4234 18.6666 15.2364 18.6666 13.9987C18.6666 12.761 18.1749 11.574 17.2998 10.6989C16.4246 9.8237 15.2376 9.33203 13.9999 9.33203C12.7622 9.33203 11.5753 9.8237 10.7001 10.6989C9.82492 11.574 9.33325 12.761 9.33325 13.9987C9.33325 15.2364 9.82492 16.4234 10.7001 17.2985C11.5753 18.1737 12.7622 18.6654 13.9999 18.6654Z" fill="#5F6566"/>
</svg>
