<svg width="24" height="24" viewBox="0 0 24 24" fill="none" xmlns="http://www.w3.org/2000/svg">
<path fill-rule="evenodd" clip-rule="evenodd" d="M7.5 7V6.5C7.5 5.30653 7.97411 4.16193 8.81802 3.31802C9.66193 2.47411 10.8065 2 12 2C13.1935 2 14.3381 2.47411 15.182 3.31802C16.0259 4.16193 16.5 5.30653 16.5 6.5V7H19C19.552 7 20 7.449 20 8.007V18.008C20 19.108 19.105 20 18.006 20H5.994C5.4655 20 4.95863 19.7902 4.58474 19.4167C4.21085 19.0432 4.00053 18.5365 4 18.008V8.008C4 7.45 4.445 7 5 7H7.5ZM9 7H15V6.5C15 5.70435 14.6839 4.94129 14.1213 4.37868C13.5587 3.81607 12.7956 3.5 12 3.5C11.2044 3.5 10.4413 3.81607 9.87868 4.37868C9.31607 4.94129 9 5.70435 9 6.5V7ZM7.5 7V10.25C7.5 10.6642 7.83579 11 8.25 11C8.66421 11 9 10.6642 9 10.25V7H7.5ZM15 7V10.25C15 10.6642 15.3358 11 15.75 11C16.1642 11 16.5 10.6642 16.5 10.25V7H15Z" fill="white"/>
</svg>
