<svg width="200" height="200" viewBox="0 0 200 200" fill="none" xmlns="http://www.w3.org/2000/svg">
<rect width="200" height="200" rx="40" fill="#FF754F"/>
<path d="M123.1 50C123.483 50 123.841 50.1041 124.15 50.2832V50C145.606 50.0004 163 67.3938 163 88.8496C163 110.306 145.606 127.699 124.15 127.699V127.416C123.841 127.595 123.483 127.7 123.1 127.7H86.3496C85.19 127.7 84.25 126.759 84.25 125.6V102.5C84.25 101.34 85.19 100.401 86.3496 100.4H123.1C123.483 100.4 123.841 100.504 124.15 100.683V100.398C130.529 100.398 135.699 95.2282 135.699 88.8496C135.699 82.4711 130.529 77.3002 124.15 77.2998V77.0166C123.841 77.1958 123.483 77.2998 123.1 77.2998H86.3496C85.1901 77.2996 84.2501 76.3598 84.25 75.2002V52.0996C84.2502 50.9401 85.1901 50.0002 86.3496 50H123.1Z" fill="white"/>
<rect x="61.1504" y="77.2998" width="23.1" height="23.1" rx="2.1" fill="white"/>
<rect x="37" y="51.0498" width="23.1" height="23.1" rx="2.1" fill="white"/>
<rect x="61.1504" y="127.7" width="23.1" height="23.1" rx="2.1" fill="white"/>
</svg>
