<svg width="20" height="20" viewBox="0 0 20 20" fill="none" xmlns="http://www.w3.org/2000/svg">
<path d="M12.9464 2.77911L13.2127 4.60001H16.8182C16.999 4.60001 17.1724 4.67092 17.3003 4.79715C17.4282 4.92338 17.5 5.09458 17.5 5.27309C17.5 5.4516 17.4282 5.6228 17.3003 5.74902C17.1724 5.87525 16.999 5.94616 16.8182 5.94616H16.1191L15.3255 15.0865C15.2773 15.643 15.2382 16.1007 15.1755 16.4704C15.1118 16.8554 15.0145 17.2 14.8245 17.5195C14.5262 18.0213 14.0827 18.4235 13.5509 18.6745C13.2127 18.8333 12.8564 18.8989 12.4618 18.9294C12.0827 18.959 11.6182 18.959 11.0527 18.959H8.94727C8.38182 18.959 7.91727 18.959 7.53818 18.9294C7.14364 18.8989 6.78727 18.8333 6.44909 18.6745C5.91735 18.4235 5.4738 18.0213 5.17545 17.5195C4.98455 17.2 4.88909 16.8554 4.82455 16.4704C4.76182 16.0998 4.72273 15.643 4.67455 15.0865L3.88091 5.94616H3.18182C3.00099 5.94616 2.82757 5.87525 2.6997 5.74902C2.57183 5.6228 2.5 5.4516 2.5 5.27309C2.5 5.09458 2.57183 4.92338 2.6997 4.79715C2.82757 4.67092 3.00099 4.60001 3.18182 4.60001H6.78727L7.05364 2.77911L7.06364 2.72437C7.22909 2.01539 7.84545 1.45898 8.61818 1.45898H11.3818C12.1545 1.45898 12.7709 2.01539 12.9364 2.72437L12.9464 2.77911ZM8.16455 4.60001H11.8345L11.6018 3.00616C11.5582 2.85629 11.4473 2.80514 11.3809 2.80514H8.61909C8.55273 2.80514 8.44182 2.85629 8.39818 3.00616L8.16455 4.60001ZM9.31818 8.86283C9.31818 8.68432 9.24635 8.51312 9.11848 8.38689C8.99062 8.26067 8.81719 8.18975 8.63636 8.18975C8.45553 8.18975 8.28211 8.26067 8.15425 8.38689C8.02638 8.51312 7.95455 8.68432 7.95455 8.86283V13.35C7.95455 13.5285 8.02638 13.6997 8.15425 13.8259C8.28211 13.9522 8.45553 14.0231 8.63636 14.0231C8.81719 14.0231 8.99062 13.9522 9.11848 13.8259C9.24635 13.6997 9.31818 13.5285 9.31818 13.35V8.86283ZM12.0455 8.86283C12.0455 8.68432 11.9736 8.51312 11.8458 8.38689C11.7179 8.26067 11.5445 8.18975 11.3636 8.18975C11.1828 8.18975 11.0094 8.26067 10.8815 8.38689C10.7537 8.51312 10.6818 8.68432 10.6818 8.86283V13.35C10.6818 13.5285 10.7537 13.6997 10.8815 13.8259C11.0094 13.9522 11.1828 14.0231 11.3636 14.0231C11.5445 14.0231 11.7179 13.9522 11.8458 13.8259C11.9736 13.6997 12.0455 13.5285 12.0455 13.35V8.86283Z" fill="#303333"/>
</svg>
