<svg width="24" height="24" viewBox="0 0 24 24" fill="none" xmlns="http://www.w3.org/2000/svg">
<path d="M1 11.3308C1 7.8557 1.34556 6.11756 2.42484 5.03827C3.50413 3.95898 5.24227 3.95898 8.71741 3.95898H15.283C18.7581 3.95898 20.4951 3.95898 21.5755 5.03827C22.656 6.11756 23.0004 7.8557 23.0004 11.3308V12.6693C23.0004 16.1444 22.6548 17.8826 21.5755 18.9619C20.4963 20.0412 18.7581 20.0412 15.283 20.0412H8.71741C5.24227 20.0412 3.50413 20.0412 2.42484 18.9619C1.34556 17.8826 1 16.1444 1 12.6693V11.3308Z" stroke="white" stroke-width="1.5" stroke-linecap="round" stroke-linejoin="round"/>
<path d="M15.0936 11.4139L10.1775 8.34187C10.0729 8.27647 9.95266 8.24028 9.82931 8.23705C9.70597 8.23382 9.58401 8.26368 9.4761 8.32351C9.36819 8.38334 9.27827 8.47097 9.21567 8.5773C9.15307 8.68363 9.12008 8.80477 9.12012 8.92816V15.0733C9.12028 15.1966 9.15342 15.3176 9.2161 15.4238C9.27879 15.5299 9.36873 15.6174 9.4766 15.6771C9.58448 15.7368 9.70635 15.7665 9.8296 15.7632C9.95284 15.76 10.073 15.7238 10.1775 15.6584L15.0936 12.5864C15.1931 12.5243 15.2752 12.4379 15.3321 12.3354C15.389 12.2328 15.4188 12.1174 15.4188 12.0002C15.4188 11.8829 15.389 11.7675 15.3321 11.6649C15.2752 11.5624 15.1931 11.476 15.0936 11.4139Z" stroke="white" stroke-width="1.5" stroke-linejoin="round"/>
</svg>
